<svg width="12" height="12" viewBox="0 0 12 12" fill="none" xmlns="http://www.w3.org/2000/svg">
<g clip-path="url(#clip0_1544_26049)">
<path d="M6 12C9.31371 12 12 9.31371 12 6C12 2.68629 9.31371 0 6 0C2.68629 0 0 2.68629 0 6C0 9.31371 2.68629 12 6 12Z" fill="#DC2863"/>
<path d="M8.34375 7.3125C9.1204 7.3125 9.75 6.6829 9.75 5.90625C9.75 5.1296 9.1204 4.5 8.34375 4.5C7.5671 4.5 6.9375 5.1296 6.9375 5.90625C6.9375 6.6829 7.5671 7.3125 8.34375 7.3125Z" fill="white"/>
<path d="M8.34375 6.5625C8.70619 6.5625 9 6.26869 9 5.90625C9 5.54381 8.70619 5.25 8.34375 5.25C7.98131 5.25 7.6875 5.54381 7.6875 5.90625C7.6875 6.26869 7.98131 6.5625 8.34375 6.5625Z" fill="#1A1A54"/>
<path d="M3.65625 7.3125C4.4329 7.3125 5.0625 6.6829 5.0625 5.90625C5.0625 5.1296 4.4329 4.5 3.65625 4.5C2.8796 4.5 2.25 5.1296 2.25 5.90625C2.25 6.6829 2.8796 7.3125 3.65625 7.3125Z" fill="white"/>
<path d="M3.65625 6.5625C4.01869 6.5625 4.3125 6.26869 4.3125 5.90625C4.3125 5.54381 4.01869 5.25 3.65625 5.25C3.29381 5.25 3 5.54381 3 5.90625C3 6.26869 3.29381 6.5625 3.65625 6.5625Z" fill="#1A1A54"/>
<path d="M7.63164 9.1875C7.31289 8.625 6.69414 8.25 6.00039 8.25C5.30664 8.25 4.70664 8.625 4.36914 9.1875" stroke="#1A1A54" stroke-width="3" stroke-miterlimit="10" stroke-linecap="round" stroke-linejoin="round"/>
<path d="M0.787109 3.75L5.99961 6.4875L11.2121 3.75H0.787109Z" fill="#DC2863"/>
<path d="M6.84362 5.70003L9.78737 3.91878C10.0311 3.76878 10.3499 3.84378 10.4999 4.08753C10.6499 4.33128 10.5749 4.65003 10.3311 4.80003C10.3124 4.81878 10.2749 4.81878 10.2561 4.83753L7.04987 6.11253C6.93737 6.15003 6.80612 6.09378 6.76862 5.98128C6.71237 5.86878 6.74987 5.75628 6.84362 5.70003Z" fill="#1A1A54"/>
<path d="M4.96936 6.11252L1.7631 4.83752C1.5006 4.72502 1.36936 4.44377 1.48186 4.16252C1.59436 3.90002 1.87561 3.76877 2.15685 3.88127C2.1756 3.90002 2.2131 3.90002 2.23185 3.91877L5.17561 5.70002C5.28811 5.75627 5.30686 5.90627 5.25061 6.00002C5.17561 6.11252 5.06311 6.15002 4.96936 6.11252Z" fill="#1A1A54"/>
</g>
<defs>
<clipPath id="clip0_1544_26049">
<rect width="12" height="12" fill="white"/>
</clipPath>
</defs>
</svg>
