<svg width="12" height="12" viewBox="0 0 12 12" fill="none" xmlns="http://www.w3.org/2000/svg">
<g clip-path="url(#clip0_1544_26067)">
<path d="M5.99962 0.375C4.16062 0.375 2.74237 0.99525 1.78612 2.03362C0.83475 3.06675 0.375 4.47675 0.375 5.99962C0.375 7.5225 0.83475 8.93213 1.78612 9.96563C2.74237 11.004 4.16062 11.6242 5.99962 11.6242C7.83862 11.6242 9.25688 11.004 10.2127 9.96563C11.1641 8.9325 11.6242 7.5225 11.6242 5.99962C11.6242 4.47675 11.1637 3.06675 10.2127 2.03362C9.2565 0.99525 7.83862 0.375 6 0.375" fill="#F7A7B8"/>
<path d="M4.12591 2.62493C4.31136 2.62496 4.49393 2.57915 4.6574 2.49157C4.82086 2.40398 4.96013 2.27735 5.06283 2.12294C5.16553 1.96852 5.22846 1.79112 5.24603 1.60651C5.26359 1.42189 5.23525 1.2358 5.16352 1.06479C5.09179 0.893777 4.9789 0.743149 4.83489 0.626309C4.69088 0.509469 4.52022 0.430041 4.3381 0.395092C4.15597 0.360144 3.96804 0.37076 3.79101 0.425995C3.61398 0.48123 3.45335 0.579371 3.32341 0.711684C2.96233 0.459569 2.52403 0.342596 2.08534 0.381271C1.64665 0.419945 1.23558 0.6118 0.924178 0.923201C0.612776 1.2346 0.420922 1.64568 0.382247 2.08436C0.343572 2.52305 0.460546 2.96135 0.712661 3.32243C0.579188 3.45347 0.480493 3.61572 0.425506 3.7945C0.37052 3.97328 0.360977 4.16295 0.397741 4.34634C0.434505 4.52974 0.516416 4.70108 0.636062 4.84485C0.755709 4.98862 0.909315 5.10029 1.08298 5.16976C1.25665 5.23922 1.44489 5.26429 1.63069 5.2427C1.81648 5.2211 1.99396 5.15352 2.14706 5.04607C2.30016 4.93862 2.42406 4.7947 2.50754 4.62731C2.59102 4.45993 2.63144 4.27437 2.62516 4.08743C2.98553 4.01357 3.31628 3.83554 3.5764 3.57542C3.83652 3.31531 4.01455 2.98455 4.08841 2.62418L4.12591 2.62493ZM7.87591 2.62493C7.69046 2.62496 7.50789 2.57915 7.34443 2.49157C7.18096 2.40398 7.04169 2.27735 6.93899 2.12294C6.83629 1.96852 6.77336 1.79112 6.7558 1.60651C6.73823 1.42189 6.76657 1.2358 6.8383 1.06479C6.91003 0.893777 7.02292 0.743149 7.16693 0.626309C7.31094 0.509469 7.4816 0.430041 7.66372 0.395092C7.84585 0.360144 8.03379 0.37076 8.21082 0.425995C8.38785 0.48123 8.54848 0.579371 8.67841 0.711684C9.03949 0.459569 9.47779 0.342596 9.91648 0.381271C10.3552 0.419945 10.7662 0.6118 11.0776 0.923201C11.389 1.2346 11.5809 1.64568 11.6196 2.08436C11.6582 2.52305 11.5413 2.96135 11.2892 3.32243C11.4226 3.45347 11.5213 3.61572 11.5763 3.7945C11.6313 3.97328 11.6408 4.16295 11.6041 4.34634C11.5673 4.52974 11.4854 4.70108 11.3658 4.84485C11.2461 4.98862 11.0925 5.10029 10.9188 5.16976C10.7452 5.23922 10.5569 5.26429 10.3711 5.2427C10.1853 5.2211 10.0079 5.15352 9.85476 5.04607C9.70166 4.93862 9.57776 4.7947 9.49428 4.62731C9.41081 4.45993 9.37038 4.27437 9.37666 4.08743C9.01629 4.01357 8.68554 3.83554 8.42542 3.57542C8.16531 3.31531 7.98727 2.98455 7.91341 2.62418L7.87591 2.62493Z" fill="#F8312F"/>
<path d="M5.99962 11.2492C9.49988 11.2492 11.2492 8.89875 11.2492 5.99925C11.2492 3.1005 9.49988 0.75 5.99925 0.75C2.49937 0.75 0.75 3.1005 0.75 5.99962C0.75 8.89875 2.499 11.2492 5.99962 11.2492Z" fill="white"/>
<path d="M9.09825 6.69736C9.26662 6.77274 9.375 6.94036 9.375 7.12486C9.375 8.06161 8.982 8.82661 8.34713 9.34861C7.72088 9.86386 6.8835 10.1249 6 10.1249C5.1165 10.1249 4.27875 9.86349 3.65288 9.34861C3.018 8.82699 2.625 8.06199 2.625 7.12486C2.62503 7.03892 2.64868 6.95465 2.69337 6.88125C2.73806 6.80784 2.80207 6.74814 2.8784 6.70866C2.95473 6.66918 3.04044 6.65144 3.12617 6.65738C3.2119 6.66333 3.29435 6.69272 3.3645 6.74236L3.36825 6.74461L3.393 6.76111C3.4319 6.78557 3.47155 6.80883 3.51187 6.83086C3.621 6.89086 3.78938 6.97449 4.01363 7.05886C4.461 7.22761 5.13112 7.40124 5.99962 7.40124C6.97913 7.39974 7.647 7.22386 8.05762 7.06036C8.2095 7.00204 8.35563 6.92973 8.49412 6.84436C8.53737 6.81636 8.56725 6.79586 8.58375 6.78286L8.59875 6.77124C8.66628 6.71253 8.74919 6.67438 8.8377 6.66129C8.92621 6.6482 9.01662 6.66072 9.09825 6.69736ZM8.253 7.98849C7.73325 8.17449 6.9945 8.33724 6.00075 8.33874H6C5.034 8.33874 4.26862 8.15124 3.73125 7.95436C3.84908 8.21507 4.02615 8.44467 4.24838 8.62486C4.67813 8.97811 5.2935 9.18736 6 9.18736C6.7065 9.18736 7.32187 8.97811 7.75163 8.62486C7.96401 8.45268 8.1353 8.23527 8.253 7.98849Z" fill="#F70A8D"/>
<path d="M6 6.75C6.17405 6.75 6.34097 6.68086 6.46404 6.55779C6.58711 6.43472 6.65625 6.2678 6.65625 6.09375C6.65625 5.9197 6.58711 5.75278 6.46404 5.62971C6.34097 5.50664 6.17405 5.4375 6 5.4375C5.82595 5.4375 5.65903 5.50664 5.53596 5.62971C5.41289 5.75278 5.34375 5.9197 5.34375 6.09375C5.34375 6.2678 5.41289 6.43472 5.53596 6.55779C5.65903 6.68086 5.82595 6.75 6 6.75Z" fill="#F8312F"/>
<path d="M5.625 4.5C5.625 4.99728 5.42746 5.47419 5.07583 5.82583C4.72419 6.17746 4.24728 6.375 3.75 6.375C3.25272 6.375 2.77581 6.17746 2.42417 5.82583C2.07254 5.47419 1.875 4.99728 1.875 4.5C1.875 4.00272 2.07254 3.52581 2.42417 3.17417C2.77581 2.82254 3.25272 2.625 3.75 2.625C4.24728 2.625 4.72419 2.82254 5.07583 3.17417C5.42746 3.52581 5.625 4.00272 5.625 4.5ZM10.125 4.5C10.125 4.99728 9.92746 5.47419 9.57583 5.82583C9.22419 6.17746 8.74728 6.375 8.25 6.375C7.75272 6.375 7.27581 6.17746 6.92417 5.82583C6.57254 5.47419 6.375 4.99728 6.375 4.5C6.375 4.00272 6.57254 3.52581 6.92417 3.17417C7.27581 2.82254 7.75272 2.625 8.25 2.625C8.74728 2.625 9.22419 2.82254 9.57583 3.17417C9.92746 3.52581 10.125 4.00272 10.125 4.5Z" fill="#0074BA"/>
<path d="M5.625 4.59375C5.625 4.96671 5.47684 5.3244 5.21312 5.58812C4.9494 5.85184 4.59171 6 4.21875 6C3.84579 6 3.4881 5.85184 3.22438 5.58812C2.96066 5.3244 2.8125 4.96671 2.8125 4.59375C2.8125 4.22079 2.96066 3.8631 3.22438 3.59938C3.4881 3.33566 3.84579 3.1875 4.21875 3.1875C4.59171 3.1875 4.9494 3.33566 5.21312 3.59938C5.47684 3.8631 5.625 4.22079 5.625 4.59375ZM9.1875 4.59375C9.1875 4.96671 9.03934 5.3244 8.77562 5.58812C8.5119 5.85184 8.15421 6 7.78125 6C7.40829 6 7.0506 5.85184 6.78688 5.58812C6.52316 5.3244 6.375 4.96671 6.375 4.59375C6.375 4.22079 6.52316 3.8631 6.78688 3.59938C7.0506 3.33566 7.40829 3.1875 7.78125 3.1875C8.15421 3.1875 8.5119 3.33566 8.77562 3.59938C9.03934 3.8631 9.1875 4.22079 9.1875 4.59375Z" fill="white"/>
<path d="M5.4375 4.59375C5.4375 4.70455 5.41568 4.81427 5.37327 4.91664C5.33087 5.01901 5.26872 5.11202 5.19037 5.19037C5.11202 5.26872 5.01901 5.33087 4.91664 5.37327C4.81427 5.41568 4.70455 5.4375 4.59375 5.4375C4.48295 5.4375 4.37323 5.41568 4.27086 5.37327C4.16849 5.33087 4.07548 5.26872 3.99713 5.19037C3.91878 5.11202 3.85663 5.01901 3.81423 4.91664C3.77182 4.81427 3.75 4.70455 3.75 4.59375C3.75 4.36997 3.83889 4.15536 3.99713 3.99713C4.15536 3.83889 4.36997 3.75 4.59375 3.75C4.81753 3.75 5.03214 3.83889 5.19037 3.99713C5.34861 4.15536 5.4375 4.36997 5.4375 4.59375ZM8.25 4.59375C8.25 4.70455 8.22818 4.81427 8.18577 4.91664C8.14337 5.01901 8.08122 5.11202 8.00287 5.19037C7.92452 5.26872 7.83151 5.33087 7.72914 5.37327C7.62677 5.41568 7.51705 5.4375 7.40625 5.4375C7.29545 5.4375 7.18573 5.41568 7.08336 5.37327C6.98099 5.33087 6.88798 5.26872 6.80963 5.19037C6.73128 5.11202 6.66913 5.01901 6.62673 4.91664C6.58432 4.81427 6.5625 4.70455 6.5625 4.59375C6.5625 4.36997 6.65139 4.15536 6.80963 3.99713C6.96786 3.83889 7.18247 3.75 7.40625 3.75C7.63003 3.75 7.84464 3.83889 8.00287 3.99713C8.16111 4.15536 8.25 4.36997 8.25 4.59375Z" fill="#402A32"/>
</g>
<defs>
<clipPath id="clip0_1544_26067">
<rect width="12" height="12" fill="white"/>
</clipPath>
</defs>
</svg>
