<svg width="12" height="12" viewBox="0 0 12 12" fill="none" xmlns="http://www.w3.org/2000/svg">
<g clip-path="url(#clip0_1544_26037)">
<path d="M5.96289 11.1375C3.34727 11.1375 0.525391 9.49688 0.525391 5.89688C0.525391 2.29688 3.34727 0.65625 5.96289 0.65625C7.41602 0.65625 8.75664 1.13437 9.75039 2.00625C10.8285 2.9625 11.4004 4.3125 11.4004 5.89688C11.4004 7.48125 10.8285 8.82188 9.75039 9.77813C8.75664 10.65 7.40664 11.1375 5.96289 11.1375Z" fill="url(#paint0_radial_1544_26037)"/>
<path d="M10.4519 2.78149C10.9516 3.58774 11.2122 4.54774 11.2122 5.61556C11.2122 7.19993 10.6403 8.54056 9.56219 9.49681C8.56844 10.3687 7.21844 10.8562 5.77469 10.8562C4.08156 10.8562 2.30594 10.1671 1.25781 8.70556C2.26656 10.3612 4.16406 11.1374 5.96219 11.1374C7.40594 11.1374 8.75594 10.6499 9.74969 9.77806C10.8278 8.82181 11.3997 7.48118 11.3997 5.89681C11.3997 4.70243 11.0744 3.64118 10.4519 2.78149Z" fill="#EB8F00"/>
<path d="M5.99918 7.44385C7.01168 7.44385 7.72418 7.96885 7.93981 8.29697C7.98022 8.34785 8.00595 8.40881 8.01421 8.47325C8.02247 8.5377 8.01295 8.60317 7.98668 8.6626C7.94543 8.73854 7.86668 8.78541 7.78043 8.78447C7.74856 8.7826 7.71668 8.77604 7.68668 8.76572C7.13788 8.60921 6.56987 8.53031 5.99918 8.53135C5.43106 8.5276 4.86481 8.6101 4.32106 8.7751C4.29106 8.78541 4.25918 8.79197 4.22731 8.79385C4.14106 8.79666 4.06043 8.74979 4.02106 8.67197C3.96668 8.55104 3.98543 8.40947 4.06793 8.30635C4.27418 7.96885 4.99606 7.44385 5.99918 7.44385Z" fill="#422B0D"/>
<path d="M3.46875 9.79679C2.85938 9.79679 2.39062 9.20617 2.39062 8.69992C2.39062 8.34367 2.55 7.93117 2.775 7.35929C2.80313 7.27492 2.84063 7.19054 2.87813 7.09679C3.00938 6.75742 3.15938 6.42554 3.32813 6.10304C3.36188 6.03836 3.43875 6.01023 3.50625 6.03742C3.53438 6.05148 3.55781 6.07492 3.57187 6.10304C3.7125 6.39367 3.87188 6.74992 4.03125 7.11554C4.425 7.99679 4.5375 8.35304 4.5375 8.70929C4.54688 9.20617 4.06875 9.79679 3.46875 9.79679Z" fill="url(#paint1_radial_1544_26037)"/>
<path d="M4.12578 9.12099C3.98797 9.3338 3.67578 9.29349 3.67578 8.94005C3.67578 8.71411 3.72172 7.55349 3.91578 7.71568C4.23453 7.98005 4.32453 8.82005 4.12578 9.12099Z" fill="#81D4FA"/>
<path d="M2.81317 4.37823C2.69598 4.55167 2.41754 4.44011 2.4991 4.23011C2.69129 3.77355 3.05035 3.40792 3.5041 3.20917C3.67004 3.13042 3.8491 3.08073 4.03192 3.06105C4.12473 3.0423 4.21567 3.1023 4.23442 3.19511C4.25317 3.28792 4.19317 3.37886 4.09942 3.39761H4.08723C3.564 3.57125 3.11495 3.91688 2.81317 4.37823ZM9.1216 4.37823C9.23879 4.55167 9.51723 4.44011 9.43567 4.23011C9.24283 3.77268 8.88125 3.40707 8.42598 3.20917C8.26004 3.13042 8.08285 3.08073 7.90004 3.06105C7.80723 3.0423 7.71629 3.1023 7.69848 3.19511C7.67973 3.28792 7.73973 3.37886 7.83254 3.39761H7.84473C8.36879 3.57011 8.81973 3.91605 9.1216 4.37823ZM4.18848 4.40073C3.79567 4.40073 3.43848 4.73261 3.43848 5.28386C3.43848 5.83511 3.79567 6.16605 4.18848 6.16605C4.58129 6.16605 4.93848 5.83417 4.93848 5.28386C4.93848 4.73355 4.58129 4.40073 4.18848 4.40073Z" fill="#422B0D"/>
<path d="M4.15183 4.76905C4.08764 4.73851 4.01398 4.73458 3.9469 4.75811C3.87982 4.78164 3.82476 4.83073 3.79371 4.89467C3.74402 4.99874 3.76652 5.12342 3.84996 5.20405C3.98308 5.2678 4.14339 5.21155 4.20808 5.07842C4.25777 4.97436 4.23527 4.84967 4.15183 4.76905Z" fill="#896024"/>
<path d="M7.78125 4.40063C7.38844 4.40063 7.03125 4.73251 7.03125 5.28376C7.03125 5.83501 7.38844 6.16595 7.78125 6.16595C8.17406 6.16595 8.53125 5.83407 8.53125 5.28376C8.53125 4.73345 8.17594 4.40063 7.78125 4.40063Z" fill="#422B0D"/>
<path d="M7.74753 4.76905C7.68334 4.73851 7.60968 4.73458 7.5426 4.75811C7.47552 4.78164 7.42046 4.83073 7.38941 4.89467C7.33972 4.99874 7.36222 5.12342 7.44566 5.20405C7.57879 5.2678 7.7391 5.21155 7.80379 5.07842C7.85347 4.97436 7.83097 4.84967 7.74753 4.76905Z" fill="#896024"/>
</g>
<defs>
<radialGradient id="paint0_radial_1544_26037" cx="0" cy="0" r="1" gradientUnits="userSpaceOnUse" gradientTransform="translate(5.96289 5.89688) scale(5.34)">
<stop offset="0.5" stop-color="#FDE030"/>
<stop offset="0.92" stop-color="#F7C02B"/>
<stop offset="1" stop-color="#F4A223"/>
</radialGradient>
<radialGradient id="paint1_radial_1544_26037" cx="0" cy="0" r="1" gradientUnits="userSpaceOnUse" gradientTransform="translate(3.54563 6.5055) scale(2.47688 3.81439)">
<stop offset="0.46" stop-color="#29B6F6"/>
<stop offset="1" stop-color="#1E88E5"/>
</radialGradient>
<clipPath id="clip0_1544_26037">
<rect width="12" height="12" fill="white"/>
</clipPath>
</defs>
</svg>
