<svg width="12" height="12" viewBox="0 0 12 12" fill="none" xmlns="http://www.w3.org/2000/svg">
<path d="M3.3336 3.81837C3.28016 4.38837 3.24266 5.39712 3.57923 5.82649C3.57923 5.82649 3.42079 4.71837 4.8411 3.32805C5.41298 2.76837 5.54516 2.00712 5.34548 1.43618C5.23204 1.11274 5.02485 0.845555 4.84485 0.658992C4.73985 0.549305 4.82048 0.368367 4.97329 0.37493C5.89766 0.41618 7.39579 0.673054 8.03235 2.27055C8.31173 2.9718 8.33235 3.69649 8.19923 4.43337C8.11485 4.90399 7.81485 5.95024 8.49923 6.07868C8.98766 6.17055 9.22391 5.78243 9.32985 5.50305C9.37391 5.3868 9.52673 5.35774 9.60923 5.45055C10.4342 6.38899 10.5045 7.4943 10.3339 8.44587C10.0039 10.2852 8.1411 11.624 6.29048 11.624C3.9786 11.624 2.13829 10.3012 1.6611 7.9068C1.46891 6.94024 1.56641 5.02774 3.05704 3.67774C3.16766 3.57649 3.3486 3.66649 3.3336 3.81837Z" fill="url(#paint0_radial_1544_26032)"/>
<path d="M7.13538 7.25823C6.28319 6.16135 6.66475 4.90979 6.87381 4.41104C6.90194 4.34541 6.82694 4.28354 6.76788 4.32385C6.40131 4.57323 5.65038 5.1601 5.30069 5.98604C4.82725 7.1026 4.861 7.64916 5.14131 8.31666C5.31006 8.71885 5.11413 8.80416 5.01569 8.81916C4.92006 8.83416 4.83194 8.77041 4.76163 8.70385C4.55939 8.50963 4.41525 8.26291 4.34538 7.99135C4.33038 7.93323 4.25444 7.91729 4.21975 7.9651C3.95725 8.32791 3.82131 8.9101 3.81475 9.32166C3.79413 10.5939 4.84506 11.6251 6.11631 11.6251C7.7185 11.6251 8.88569 9.85323 7.96506 8.37198C7.69788 7.94073 7.44663 7.65854 7.13538 7.25823Z" fill="url(#paint1_radial_1544_26032)"/>
<defs>
<radialGradient id="paint0_radial_1544_26032" cx="0" cy="0" r="1" gradientUnits="userSpaceOnUse" gradientTransform="translate(5.83258 11.6531) rotate(-179.751) scale(6.61759 10.8581)">
<stop offset="0.314" stop-color="#FF9800"/>
<stop offset="0.662" stop-color="#FF6D00"/>
<stop offset="0.972" stop-color="#F44336"/>
</radialGradient>
<radialGradient id="paint1_radial_1544_26032" cx="0" cy="0" r="1" gradientUnits="userSpaceOnUse" gradientTransform="translate(6.20443 5.06808) rotate(90.5787) scale(6.92404 5.21086)">
<stop offset="0.214" stop-color="#FFF176"/>
<stop offset="0.328" stop-color="#FFF27D"/>
<stop offset="0.487" stop-color="#FFF48F"/>
<stop offset="0.672" stop-color="#FFF7AD"/>
<stop offset="0.793" stop-color="#FFF9C4"/>
<stop offset="0.822" stop-color="#FFF8BD" stop-opacity="0.804"/>
<stop offset="0.863" stop-color="#FFF6AB" stop-opacity="0.529"/>
<stop offset="0.91" stop-color="#FFF38D" stop-opacity="0.209"/>
<stop offset="0.941" stop-color="#FFF176" stop-opacity="0"/>
</radialGradient>
</defs>
</svg>
