<svg width="29" height="29" viewBox="0 0 29 29" fill="none" xmlns="http://www.w3.org/2000/svg">
<g filter="url(#filter0_d_1462_48296)">
<rect width="28" height="28" rx="2.85714" fill="white" shape-rendering="crispEdges"/>
<rect x="0.714286" y="0.714286" width="26.5714" height="26.5714" rx="2.14286" stroke="#F2A7B0" stroke-width="1.42857" shape-rendering="crispEdges"/>
<g clip-path="url(#clip0_1462_48296)">
<path d="M13.9995 6.5C11.5475 6.5 9.6565 7.327 8.3815 8.7115C7.113 10.089 6.5 11.969 6.5 13.9995C6.5 16.03 7.113 17.9095 8.3815 19.2875C9.6565 20.672 11.5475 21.499 13.9995 21.499C16.4515 21.499 18.3425 20.672 19.617 19.2875C20.8855 17.91 21.499 16.03 21.499 13.9995C21.499 11.969 20.885 10.089 19.617 8.7115C18.342 7.327 16.4515 6.5 14 6.5" fill="#F7A7B8"/>
<path d="M11.5002 9.49999C11.7475 9.50003 11.9909 9.43895 12.2089 9.32217C12.4268 9.20539 12.6125 9.03655 12.7495 8.83067C12.8864 8.62478 12.9703 8.38824 12.9937 8.14209C13.0171 7.89594 12.9794 7.64782 12.8837 7.4198C12.7881 7.19178 12.6376 6.99095 12.4455 6.83516C12.2535 6.67937 12.026 6.57347 11.7832 6.52687C11.5403 6.48027 11.2897 6.49443 11.0537 6.56807C10.8177 6.64172 10.6035 6.77258 10.4302 6.94899C9.9488 6.61284 9.36439 6.45688 8.77948 6.50844C8.19456 6.56001 7.64646 6.81581 7.23126 7.23102C6.81606 7.64622 6.56025 8.19432 6.50869 8.77923C6.45712 9.36415 6.61308 9.94855 6.94924 10.43C6.77127 10.6047 6.63968 10.821 6.56637 11.0594C6.49305 11.2978 6.48033 11.5507 6.52934 11.7952C6.57836 12.0397 6.68758 12.2682 6.84711 12.4599C7.00664 12.6516 7.21144 12.8005 7.443 12.8931C7.67455 12.9857 7.92555 13.0191 8.17327 12.9903C8.421 12.9616 8.65764 12.8714 8.86177 12.7282C9.06591 12.5849 9.2311 12.393 9.34241 12.1698C9.45371 11.9467 9.50762 11.6992 9.49924 11.45C9.97973 11.3515 10.4207 11.1141 10.7676 10.7673C11.1144 10.4205 11.3518 9.97948 11.4502 9.49899L11.5002 9.49999ZM16.5002 9.49999C16.253 9.50003 16.0095 9.43895 15.7916 9.32217C15.5736 9.20539 15.3879 9.03655 15.251 8.83067C15.1141 8.62478 15.0302 8.38824 15.0068 8.14209C14.9833 7.89594 15.0211 7.64782 15.1168 7.4198C15.2124 7.19178 15.3629 6.99095 15.5549 6.83516C15.7469 6.67937 15.9745 6.57347 16.2173 6.52687C16.4602 6.48027 16.7107 6.49443 16.9468 6.56807C17.1828 6.64172 17.397 6.77258 17.5702 6.94899C18.0517 6.61284 18.6361 6.45688 19.221 6.50844C19.8059 6.56001 20.354 6.81581 20.7692 7.23102C21.1844 7.64622 21.4402 8.19432 21.4918 8.77923C21.5434 9.36415 21.3874 9.94855 21.0512 10.43C21.2292 10.6047 21.3608 10.821 21.4341 11.0594C21.5074 11.2978 21.5202 11.5507 21.4711 11.7952C21.4221 12.0397 21.3129 12.2682 21.1534 12.4599C20.9938 12.6516 20.789 12.8005 20.5575 12.8931C20.3259 12.9857 20.0749 13.0191 19.8272 12.9903C19.5795 12.9616 19.3428 12.8714 19.1387 12.7282C18.9346 12.5849 18.7694 12.393 18.6581 12.1698C18.5468 11.9467 18.4929 11.6992 18.5012 11.45C18.0207 11.3515 17.5797 11.1141 17.2329 10.7673C16.8861 10.4205 16.6487 9.97948 16.5502 9.49899L16.5002 9.49999Z" fill="#F8312F"/>
<path d="M13.9995 20.999C18.6665 20.999 20.999 17.865 20.999 13.999C20.999 10.134 18.6665 7 13.999 7C9.3325 7 7 10.134 7 13.9995C7 17.865 9.332 20.999 13.9995 20.999Z" fill="white"/>
<path d="M18.131 14.9301C18.3555 15.0306 18.5 15.2541 18.5 15.5001C18.5 16.7491 17.976 17.7691 17.1295 18.4651C16.2945 19.1521 15.178 19.5001 14 19.5001C12.822 19.5001 11.705 19.1516 10.8705 18.4651C10.024 17.7696 9.5 16.7496 9.5 15.5001C9.50004 15.3855 9.53157 15.2731 9.59116 15.1752C9.65074 15.0774 9.73609 14.9978 9.83786 14.9451C9.93963 14.8925 10.0539 14.8688 10.1682 14.8768C10.2825 14.8847 10.3925 14.9239 10.486 14.9901L10.491 14.9931L10.524 15.0151C10.5759 15.0477 10.6287 15.0787 10.6825 15.1081C10.828 15.1881 11.0525 15.2996 11.3515 15.4121C11.948 15.6371 12.8415 15.8686 13.9995 15.8686C15.3055 15.8666 16.196 15.6321 16.7435 15.4141C16.946 15.3363 17.1408 15.2399 17.3255 15.1261C17.3832 15.0887 17.423 15.0614 17.445 15.0441L17.465 15.0286C17.555 14.9503 17.6656 14.8994 17.7836 14.882C17.9016 14.8645 18.0222 14.8812 18.131 14.9301ZM17.004 16.6516C16.311 16.8996 15.326 17.1166 14.001 17.1186H14C12.712 17.1186 11.6915 16.8686 10.975 16.6061C11.1321 16.9537 11.3682 17.2598 11.6645 17.5001C12.2375 17.9711 13.058 18.2501 14 18.2501C14.942 18.2501 15.7625 17.9711 16.3355 17.5001C16.6187 17.2705 16.8471 16.9806 17.004 16.6516Z" fill="#F70A8D"/>
<path d="M14 15C14.2321 15 14.4546 14.9078 14.6187 14.7437C14.7828 14.5796 14.875 14.3571 14.875 14.125C14.875 13.8929 14.7828 13.6704 14.6187 13.5063C14.4546 13.3422 14.2321 13.25 14 13.25C13.7679 13.25 13.5454 13.3422 13.3813 13.5063C13.2172 13.6704 13.125 13.8929 13.125 14.125C13.125 14.3571 13.2172 14.5796 13.3813 14.7437C13.5454 14.9078 13.7679 15 14 15Z" fill="#F8312F"/>
<path d="M13.5 12C13.5 12.663 13.2366 13.2989 12.7678 13.7678C12.2989 14.2366 11.663 14.5 11 14.5C10.337 14.5 9.70107 14.2366 9.23223 13.7678C8.76339 13.2989 8.5 12.663 8.5 12C8.5 11.337 8.76339 10.7011 9.23223 10.2322C9.70107 9.76339 10.337 9.5 11 9.5C11.663 9.5 12.2989 9.76339 12.7678 10.2322C13.2366 10.7011 13.5 11.337 13.5 12ZM19.5 12C19.5 12.663 19.2366 13.2989 18.7678 13.7678C18.2989 14.2366 17.663 14.5 17 14.5C16.337 14.5 15.7011 14.2366 15.2322 13.7678C14.7634 13.2989 14.5 12.663 14.5 12C14.5 11.337 14.7634 10.7011 15.2322 10.2322C15.7011 9.76339 16.337 9.5 17 9.5C17.663 9.5 18.2989 9.76339 18.7678 10.2322C19.2366 10.7011 19.5 11.337 19.5 12Z" fill="#0074BA"/>
<path d="M13.5 12.125C13.5 12.6223 13.3025 13.0992 12.9508 13.4508C12.5992 13.8025 12.1223 14 11.625 14C11.1277 14 10.6508 13.8025 10.2992 13.4508C9.94754 13.0992 9.75 12.6223 9.75 12.125C9.75 11.6277 9.94754 11.1508 10.2992 10.7992C10.6508 10.4475 11.1277 10.25 11.625 10.25C12.1223 10.25 12.5992 10.4475 12.9508 10.7992C13.3025 11.1508 13.5 11.6277 13.5 12.125ZM18.25 12.125C18.25 12.6223 18.0525 13.0992 17.7008 13.4508C17.3492 13.8025 16.8723 14 16.375 14C15.8777 14 15.4008 13.8025 15.0492 13.4508C14.6975 13.0992 14.5 12.6223 14.5 12.125C14.5 11.6277 14.6975 11.1508 15.0492 10.7992C15.4008 10.4475 15.8777 10.25 16.375 10.25C16.8723 10.25 17.3492 10.4475 17.7008 10.7992C18.0525 11.1508 18.25 11.6277 18.25 12.125Z" fill="white"/>
<path d="M13.25 12.125C13.25 12.2727 13.2209 12.419 13.1644 12.5555C13.1078 12.692 13.025 12.816 12.9205 12.9205C12.816 13.025 12.692 13.1078 12.5555 13.1644C12.419 13.2209 12.2727 13.25 12.125 13.25C11.9773 13.25 11.831 13.2209 11.6945 13.1644C11.558 13.1078 11.434 13.025 11.3295 12.9205C11.225 12.816 11.1422 12.692 11.0856 12.5555C11.0291 12.419 11 12.2727 11 12.125C11 11.8266 11.1185 11.5405 11.3295 11.3295C11.5405 11.1185 11.8266 11 12.125 11C12.4234 11 12.7095 11.1185 12.9205 11.3295C13.1315 11.5405 13.25 11.8266 13.25 12.125ZM17 12.125C17 12.2727 16.9709 12.419 16.9144 12.5555C16.8578 12.692 16.775 12.816 16.6705 12.9205C16.566 13.025 16.442 13.1078 16.3055 13.1644C16.169 13.2209 16.0227 13.25 15.875 13.25C15.7273 13.25 15.581 13.2209 15.4445 13.1644C15.308 13.1078 15.184 13.025 15.0795 12.9205C14.975 12.816 14.8922 12.692 14.8356 12.5555C14.7791 12.419 14.75 12.2727 14.75 12.125C14.75 11.8266 14.8685 11.5405 15.0795 11.3295C15.2905 11.1185 15.5766 11 15.875 11C16.1734 11 16.4595 11.1185 16.6705 11.3295C16.8815 11.5405 17 11.8266 17 12.125Z" fill="#402A32"/>
</g>
</g>
<defs>
<filter id="filter0_d_1462_48296" x="0" y="0" width="29" height="29" filterUnits="userSpaceOnUse" color-interpolation-filters="sRGB">
<feFlood flood-opacity="0" result="BackgroundImageFix"/>
<feColorMatrix in="SourceAlpha" type="matrix" values="0 0 0 0 0 0 0 0 0 0 0 0 0 0 0 0 0 0 127 0" result="hardAlpha"/>
<feOffset dx="1" dy="1"/>
<feComposite in2="hardAlpha" operator="out"/>
<feColorMatrix type="matrix" values="0 0 0 0 0.94902 0 0 0 0 0.654902 0 0 0 0 0.690196 0 0 0 1 0"/>
<feBlend mode="normal" in2="BackgroundImageFix" result="effect1_dropShadow_1462_48296"/>
<feBlend mode="normal" in="SourceGraphic" in2="effect1_dropShadow_1462_48296" result="shape"/>
</filter>
<clipPath id="clip0_1462_48296">
<rect width="16" height="16" fill="white" transform="translate(6 6)"/>
</clipPath>
</defs>
</svg>
