<svg width="12" height="12" viewBox="0 0 12 12" fill="none" xmlns="http://www.w3.org/2000/svg">
<g clip-path="url(#clip0_1544_26013)">
<path d="M9.66872 9.60281C7.81903 11.4525 4.66341 12.2878 2.1181 9.74156C-0.427215 7.19531 0.40716 4.04062 2.25685 2.19093C3.28153 1.16343 4.5706 0.554059 5.88966 0.468746C7.32872 0.382496 8.68716 0.932809 9.80747 2.05312C10.9278 3.17343 11.4715 4.52531 11.3853 5.96437C11.299 7.2825 10.6878 8.58187 9.66872 9.60281Z" fill="url(#paint0_radial_1544_26013)"/>
<path d="M6.93672 0.519287C7.85922 0.73585 8.71797 1.23085 9.47828 1.98554C10.6033 3.11054 11.1423 4.45866 11.0561 5.89679C10.968 7.21866 10.3567 8.51522 9.33578 9.53616C8.13859 10.7333 6.39391 11.5049 4.62109 11.2096C6.50547 11.6671 8.39547 10.8749 9.66766 9.60272C10.6867 8.58179 11.298 7.28241 11.3842 5.96335C11.4705 4.52429 10.9267 3.17241 9.80641 2.0521C8.96172 1.20741 7.98109 0.6871 6.93672 0.519287Z" fill="#EB8F00"/>
<path d="M9.06733 3.7088C8.80764 3.6338 8.53202 3.76224 8.42233 4.00974C7.93947 4.88781 7.33296 5.69196 6.62139 6.39755C5.91639 7.10911 5.11202 7.71567 4.23358 8.19755C4.1144 8.25109 4.01844 8.34569 3.96319 8.4641C3.90795 8.5825 3.89711 8.71682 3.93264 8.84255C4.00952 9.10036 4.26733 9.22692 4.51014 9.31786C5.87046 9.82692 7.36764 9.44817 8.51796 8.30442L8.52921 8.29411C9.67202 7.1438 10.0508 5.64661 9.54171 4.28536C9.45171 4.04349 9.32421 3.78474 9.06733 3.7088Z" fill="#422B0D"/>
<path d="M8.44461 8.21063L8.43898 8.21625V8.22187L8.44461 8.21063ZM6.71305 6.46875L6.70273 6.47812L6.69336 6.48844L6.71305 6.46875Z" fill="#422B0D"/>
<path d="M6.71305 6.46875L6.70273 6.47812L6.69336 6.48844L6.71305 6.46875ZM8.44461 8.21063L8.43898 8.21625V8.22187L8.44461 8.21063Z" fill="#422B0D"/>
<path d="M9.31915 6.97314C9.27134 6.97314 9.2254 6.97971 9.1804 6.98346C8.67134 7.01627 8.19321 7.23846 7.83977 7.60596C7.46102 7.96971 7.22102 8.45533 7.16102 8.97752C7.1554 9.02346 7.14977 9.07127 7.14696 9.11627C7.14415 9.16127 7.15446 9.19877 7.16009 9.23627C7.6669 9.01331 8.12737 8.69721 8.51759 8.30439L8.52884 8.29408C8.90477 7.92002 9.2104 7.48127 9.43071 6.9994C9.39415 6.98815 9.35665 6.97971 9.31915 6.97314Z" fill="#ED7770"/>
<path d="M8.42233 4.00974C7.93947 4.88781 7.33296 5.69196 6.6214 6.39755C5.9164 7.10911 5.11202 7.71567 4.23358 8.19755C4.1144 8.25109 4.01844 8.34569 3.96319 8.4641C3.90795 8.5825 3.89711 8.71682 3.93264 8.84255C3.94483 8.88099 3.96077 8.91755 3.98139 8.95224C4.01983 8.93911 4.05639 8.92411 4.09296 8.9063C5.29036 8.50915 6.3755 7.83158 7.25796 6.93005C8.12311 6.08374 8.78336 5.05087 9.18827 3.91036C9.20421 3.87192 9.21827 3.83255 9.23046 3.79224C9.18171 3.75474 9.1264 3.72567 9.06733 3.7088C8.80765 3.6338 8.53202 3.76224 8.42233 4.00974Z" fill="white"/>
<path d="M6.69332 6.53803C7.24363 6.00553 7.60363 5.48241 8.03675 4.84491C8.14457 4.68553 8.24675 4.52241 8.34519 4.3546L8.41644 4.22803C8.43519 4.19522 8.45582 4.16334 8.48019 4.13428C8.52332 4.08084 8.57863 4.0396 8.64238 4.01335C8.7905 3.95897 8.95269 3.95616 9.10269 4.00584C9.40738 4.15209 9.67269 4.67335 9.63894 4.57585C9.63894 4.57585 9.58363 4.35741 9.58175 4.3546C9.50675 4.1671 9.42988 3.95522 9.23582 3.7921C9.13385 3.71432 9.01274 3.66558 8.88532 3.65106C8.7579 3.63653 8.62892 3.65676 8.51207 3.70959C8.40083 3.7601 8.30411 3.8378 8.23082 3.93553C8.19519 3.98053 8.16332 4.02928 8.13707 4.08084L8.07425 4.20459C7.98707 4.36866 7.89425 4.53085 7.793 4.68928C7.433 5.29022 7.00832 5.84991 6.52644 6.35803L6.51144 6.37303C6.01402 6.8492 5.46499 7.26836 4.87457 7.62272C4.71519 7.71647 4.55394 7.81022 4.38988 7.90397L4.26238 7.96866C4.21082 7.99491 4.16207 8.02585 4.11707 8.06241C4.01882 8.13541 3.94075 8.23219 3.89019 8.34366C3.84087 8.45983 3.82356 8.58709 3.84004 8.71222C3.85653 8.83735 3.90621 8.95578 3.98394 9.05522C4.23613 9.38428 4.81175 9.43022 4.81457 9.43022C4.90832 9.46397 4.34019 9.2221 4.19394 8.91741C4.14237 8.77281 4.14237 8.61482 4.19394 8.47022C4.21832 8.40459 4.25863 8.34647 4.31207 8.30147C4.34113 8.2771 4.373 8.25647 4.40582 8.23866L4.53238 8.16741C4.69925 8.07366 4.86238 7.96585 5.02269 7.85803C5.65925 7.42491 6.14769 7.10803 6.67738 6.55303" fill="#EB8F00"/>
<path d="M10.7939 2.93806C10.9064 3.65431 10.2483 4.33306 9.65107 4.41368C9.23108 4.46993 8.76233 4.37337 8.05733 4.19806C7.95326 4.17837 7.84732 4.14743 7.73107 4.11837C7.3017 3.99931 6.87982 3.85587 6.46639 3.68899C6.42723 3.67461 6.39476 3.64627 6.37521 3.60942C6.35566 3.57257 6.35041 3.52979 6.36045 3.48931C6.37264 3.45368 6.39701 3.42274 6.42795 3.40212C6.74424 3.07788 7.09981 2.79443 7.48639 2.55837C8.46232 1.95462 8.83357 1.87306 9.25357 1.81681C9.83295 1.72212 10.672 2.15618 10.7939 2.93806Z" fill="url(#paint1_radial_1544_26013)"/>
<path d="M9.89257 2.26773C10.1654 2.3971 10.1673 2.77116 9.751 2.83023C9.48382 2.86585 8.1085 2.99523 8.26882 2.74116C8.53132 2.32398 9.50725 2.08491 9.89257 2.26773Z" fill="#81D4FA"/>
<path d="M6.81107 2.91555L5.94575 3.6918L6.26638 2.45898C6.26919 2.44398 6.272 2.42992 6.27294 2.41492C6.28138 2.36407 6.27971 2.31205 6.26802 2.26184C6.25632 2.21163 6.23484 2.16423 6.20479 2.12234C6.17475 2.08045 6.13673 2.0449 6.09292 2.01773C6.04912 1.99055 6.00038 1.97229 5.9495 1.96398C5.89888 1.95555 5.84638 1.95742 5.79575 1.96867C5.68446 1.99926 5.58528 2.06335 5.51165 2.15224C5.43803 2.24112 5.39353 2.35051 5.38419 2.46555C5.33075 3.01023 5.20513 4.29367 5.15638 4.79336C5.14138 4.84305 5.1695 4.89555 5.21919 4.91055C5.252 4.92086 5.28763 4.91148 5.312 4.88711L7.25169 3.66086L7.29013 3.63367C7.5245 3.45367 7.58169 3.11055 7.39232 2.9118C7.24794 2.75992 6.99857 2.77211 6.81107 2.91555Z" fill="#422B0D"/>
<path d="M2.4281 9.75008C2.39435 9.34602 2.39341 8.98227 2.7581 7.94446C2.9006 7.53383 3.09373 7.14289 3.33279 6.78008C3.34591 6.74633 3.37029 6.71821 3.40123 6.69946C3.47529 6.66196 3.56529 6.68727 3.61029 6.75664C3.85123 7.10914 4.07154 7.47477 4.27216 7.85164C4.32279 7.95477 4.37341 8.04664 4.41373 8.14039C4.7231 8.76758 4.90966 9.18664 4.94341 9.59071C4.99123 10.1654 4.49154 10.921 3.79873 10.9641C3.04404 11.0073 2.46373 10.3126 2.4281 9.75008Z" fill="url(#paint2_radial_1544_26013)"/>
<path d="M3.09425 8.64096C3.29768 8.43752 3.45987 9.75002 3.48143 10.0078C3.51425 10.4091 3.16362 10.4841 2.98737 10.2563C2.73612 9.93752 2.75956 8.97096 3.09425 8.64096Z" fill="#81D4FA"/>
<path d="M2.82837 7.38373L3.45274 6.40217L2.2893 6.92154L2.24993 6.93748C2.04462 7.00686 1.82149 6.89717 1.75118 6.69186C1.7343 6.64311 1.72774 6.59154 1.73149 6.53998C1.74329 6.42511 1.79022 6.31667 1.86588 6.22943C1.94154 6.1422 2.04226 6.08041 2.1543 6.05248L4.40618 5.44217C4.45305 5.41967 4.5093 5.43936 4.5318 5.48623C4.5468 5.51717 4.54399 5.55373 4.52337 5.58092L3.63555 7.69498C3.62993 7.70998 3.62337 7.72404 3.61587 7.73811C3.47712 7.99873 3.14712 8.11311 2.92024 7.95748C2.7468 7.83936 2.71868 7.59373 2.82837 7.38373Z" fill="#422B0D"/>
</g>
<defs>
<radialGradient id="paint0_radial_1544_26013" cx="0" cy="0" r="1" gradientUnits="userSpaceOnUse" gradientTransform="translate(5.80078 5.70032) rotate(-45) scale(5.34)">
<stop offset="0.5" stop-color="#FDE030"/>
<stop offset="0.92" stop-color="#F7C02B"/>
<stop offset="1" stop-color="#F4A223"/>
</radialGradient>
<radialGradient id="paint1_radial_1544_26013" cx="0" cy="0" r="1" gradientUnits="userSpaceOnUse" gradientTransform="translate(7.26458 2.85966) rotate(-97.4809) scale(2.95805 4.57504)">
<stop offset="0.46" stop-color="#29B6F6"/>
<stop offset="1" stop-color="#1E88E5"/>
</radialGradient>
<radialGradient id="paint2_radial_1544_26013" cx="0" cy="0" r="1" gradientUnits="userSpaceOnUse" gradientTransform="translate(3.69768 6.90876) rotate(175.426) scale(2.84594 4.356)">
<stop offset="0.46" stop-color="#29B6F6"/>
<stop offset="1" stop-color="#1E88E5"/>
</radialGradient>
<clipPath id="clip0_1544_26013">
<rect width="12" height="12" fill="white"/>
</clipPath>
</defs>
</svg>
