<svg width="12" height="12" viewBox="0 0 12 12" fill="none" xmlns="http://www.w3.org/2000/svg">
<path d="M10.5787 8.65172C10.9842 8.34352 11.25 7.86117 11.25 7.3125C11.25 6.38039 10.4944 5.625 9.5625 5.625H9.23273C9.54727 5.35008 9.75 4.95047 9.75 4.5C9.75 3.67148 9.07852 3 8.25 3H8.11219C8.19586 2.76445 8.25 2.51437 8.25 2.25C8.25 1.00734 7.24266 0 6 0C5.87883 0 5.76211 0.0173438 5.64586 0.035625C5.86664 0.343125 6 0.717656 6 1.125C6 2.16047 5.16047 3 4.125 3H3.75C2.92148 3 2.25 3.67148 2.25 4.5C2.25 4.95047 2.45273 5.35008 2.76727 5.625H2.4375C1.50563 5.625 0.75 6.38039 0.75 7.3125C0.75 7.86117 1.01578 8.34352 1.42125 8.65172C0.616641 8.78016 0 9.47156 0 10.3125C0 11.2444 0.755625 12 1.6875 12H10.3125C11.2444 12 12 11.2444 12 10.3125C12 9.47156 11.3834 8.78016 10.5787 8.65172Z" fill="#EFB03D"/>
</svg>
