<svg width="29" height="29" viewBox="0 0 29 29" fill="none" xmlns="http://www.w3.org/2000/svg">
<g filter="url(#filter0_d_1462_48268)">
<rect width="28" height="28" rx="2.85714" fill="white" shape-rendering="crispEdges"/>
<rect x="0.714286" y="0.714286" width="26.5714" height="26.5714" rx="2.14286" stroke="#A7AAF2" stroke-width="1.42857" shape-rendering="crispEdges"/>
<path d="M13.9502 20.85C10.4627 20.85 6.7002 18.6625 6.7002 13.8625C6.7002 9.0625 10.4627 6.875 13.9502 6.875C15.8877 6.875 17.6752 7.5125 19.0002 8.675C20.4377 9.95 21.2002 11.75 21.2002 13.8625C21.2002 15.975 20.4377 17.7625 19.0002 19.0375C17.6752 20.2 15.8752 20.85 13.9502 20.85Z" fill="url(#paint0_radial_1462_48268)"/>
<path d="M19.9365 9.70874C20.6027 10.7837 20.9502 12.0637 20.9502 13.4875C20.9502 15.6 20.1877 17.3875 18.7502 18.6625C17.4252 19.825 15.6252 20.475 13.7002 20.475C11.4427 20.475 9.07523 19.5562 7.67773 17.6075C9.02273 19.815 11.5527 20.85 13.9502 20.85C15.8752 20.85 17.6752 20.2 19.0002 19.0375C20.4377 17.7625 21.2002 15.975 21.2002 13.8625C21.2002 12.27 20.7665 10.855 19.9365 9.70874Z" fill="#EB8F00"/>
<path d="M13.9999 15.925C15.3499 15.925 16.2999 16.625 16.5874 17.0625C16.6413 17.1304 16.6756 17.2117 16.6866 17.2976C16.6976 17.3835 16.6849 17.4708 16.6499 17.55C16.5949 17.6513 16.4899 17.7138 16.3749 17.7125C16.3324 17.71 16.2899 17.7013 16.2499 17.6875C15.5182 17.4789 14.7608 17.3737 13.9999 17.375C13.2424 17.37 12.4874 17.48 11.7624 17.7C11.7224 17.7138 11.6799 17.7225 11.6374 17.725C11.5224 17.7288 11.4149 17.6663 11.3624 17.5625C11.2899 17.4013 11.3149 17.2125 11.4249 17.075C11.6999 16.625 12.6624 15.925 13.9999 15.925Z" fill="#422B0D"/>
<path d="M10.625 19.0624C9.8125 19.0624 9.1875 18.2749 9.1875 17.5999C9.1875 17.1249 9.4 16.5749 9.7 15.8124C9.7375 15.6999 9.7875 15.5874 9.8375 15.4624C10.0125 15.0099 10.2125 14.5674 10.4375 14.1374C10.4825 14.0511 10.585 14.0136 10.675 14.0499C10.7125 14.0686 10.7437 14.0999 10.7625 14.1374C10.95 14.5249 11.1625 14.9999 11.375 15.4874C11.9 16.6624 12.05 17.1374 12.05 17.6124C12.0625 18.2749 11.425 19.0624 10.625 19.0624Z" fill="url(#paint1_radial_1462_48268)"/>
<path d="M11.5004 18.1612C11.3166 18.445 10.9004 18.3912 10.9004 17.92C10.9004 17.6187 10.9616 16.0712 11.2204 16.2875C11.6454 16.64 11.7654 17.76 11.5004 18.1612Z" fill="#81D4FA"/>
<path d="M9.74991 11.8375C9.59366 12.0687 9.22241 11.92 9.33116 11.64C9.58741 11.0312 10.0662 10.5437 10.6712 10.2787C10.8924 10.1737 11.1312 10.1075 11.3749 10.0812C11.4987 10.0562 11.6199 10.1362 11.6449 10.26C11.6699 10.3837 11.5899 10.505 11.4649 10.53H11.4487C10.751 10.7615 10.1523 11.2223 9.74991 11.8375ZM18.1612 11.8375C18.3174 12.0687 18.6887 11.92 18.5799 11.64C18.3228 11.0301 17.8407 10.5426 17.2337 10.2787C17.0124 10.1737 16.7762 10.1075 16.5324 10.0812C16.4087 10.0562 16.2874 10.1362 16.2637 10.26C16.2387 10.3837 16.3187 10.505 16.4424 10.53H16.4587C17.1574 10.76 17.7587 11.2212 18.1612 11.8375ZM11.5837 11.8675C11.0599 11.8675 10.5837 12.31 10.5837 13.045C10.5837 13.78 11.0599 14.2212 11.5837 14.2212C12.1074 14.2212 12.5837 13.7787 12.5837 13.045C12.5837 12.3112 12.1074 11.8675 11.5837 11.8675Z" fill="#422B0D"/>
<path d="M11.5348 12.3588C11.4492 12.3181 11.351 12.3129 11.2616 12.3442C11.1721 12.3756 11.0987 12.441 11.0573 12.5263C10.991 12.6651 11.021 12.8313 11.1323 12.9388C11.3098 13.0238 11.5235 12.9488 11.6098 12.7713C11.676 12.6326 11.646 12.4663 11.5348 12.3588Z" fill="#896024"/>
<path d="M16.375 11.8674C15.8512 11.8674 15.375 12.3099 15.375 13.0449C15.375 13.7799 15.8512 14.2212 16.375 14.2212C16.8988 14.2212 17.375 13.7787 17.375 13.0449C17.375 12.3112 16.9013 11.8674 16.375 11.8674Z" fill="#422B0D"/>
<path d="M16.3287 12.3588C16.2432 12.3181 16.1449 12.3129 16.0555 12.3442C15.9661 12.3756 15.8926 12.441 15.8512 12.5263C15.785 12.6651 15.815 12.8313 15.9262 12.9388C16.1037 13.0238 16.3175 12.9488 16.4037 12.7713C16.47 12.6326 16.44 12.4663 16.3287 12.3588Z" fill="#896024"/>
</g>
<defs>
<filter id="filter0_d_1462_48268" x="0" y="0" width="29" height="29" filterUnits="userSpaceOnUse" color-interpolation-filters="sRGB">
<feFlood flood-opacity="0" result="BackgroundImageFix"/>
<feColorMatrix in="SourceAlpha" type="matrix" values="0 0 0 0 0 0 0 0 0 0 0 0 0 0 0 0 0 0 127 0" result="hardAlpha"/>
<feOffset dx="1" dy="1"/>
<feComposite in2="hardAlpha" operator="out"/>
<feColorMatrix type="matrix" values="0 0 0 0 0.654902 0 0 0 0 0.666667 0 0 0 0 0.94902 0 0 0 1 0"/>
<feBlend mode="normal" in2="BackgroundImageFix" result="effect1_dropShadow_1462_48268"/>
<feBlend mode="normal" in="SourceGraphic" in2="effect1_dropShadow_1462_48268" result="shape"/>
</filter>
<radialGradient id="paint0_radial_1462_48268" cx="0" cy="0" r="1" gradientUnits="userSpaceOnUse" gradientTransform="translate(13.9502 13.8625) scale(7.12)">
<stop offset="0.5" stop-color="#FDE030"/>
<stop offset="0.92" stop-color="#F7C02B"/>
<stop offset="1" stop-color="#F4A223"/>
</radialGradient>
<radialGradient id="paint1_radial_1462_48268" cx="0" cy="0" r="1" gradientUnits="userSpaceOnUse" gradientTransform="translate(10.7275 14.674) scale(3.3025 5.08585)">
<stop offset="0.46" stop-color="#29B6F6"/>
<stop offset="1" stop-color="#1E88E5"/>
</radialGradient>
</defs>
</svg>
