<svg width="29" height="29" viewBox="0 0 29 29" fill="none" xmlns="http://www.w3.org/2000/svg">
<g filter="url(#filter0_d_1462_48265)">
<rect width="28" height="28" rx="2.85714" fill="white" shape-rendering="crispEdges"/>
<rect x="0.714286" y="0.714286" width="26.5714" height="26.5714" rx="2.14286" stroke="#EFB03D" stroke-width="1.42857" shape-rendering="crispEdges"/>
<g clip-path="url(#clip0_1462_48265)">
<path d="M20.105 17.5356C20.6456 17.1247 21 16.4816 21 15.75C21 14.5072 19.9925 13.5 18.75 13.5H18.3103C18.7297 13.1334 19 12.6006 19 12C19 10.8953 18.1047 10 17 10H16.8162C16.9278 9.68594 17 9.3525 17 9C17 7.34312 15.6569 6 14 6C13.8384 6 13.6828 6.02313 13.5278 6.0475C13.8222 6.4575 14 6.95688 14 7.5C14 8.88063 12.8806 10 11.5 10H11C9.89531 10 9 10.8953 9 12C9 12.6006 9.27031 13.1334 9.68969 13.5H9.25C8.0075 13.5 7 14.5072 7 15.75C7 16.4816 7.35438 17.1247 7.895 17.5356C6.82219 17.7069 6 18.6287 6 19.75C6 20.9925 7.0075 22 8.25 22H19.75C20.9925 22 22 20.9925 22 19.75C22 18.6287 21.1778 17.7069 20.105 17.5356Z" fill="#EFB03D"/>
</g>
</g>
<defs>
<filter id="filter0_d_1462_48265" x="0" y="0" width="29" height="29" filterUnits="userSpaceOnUse" color-interpolation-filters="sRGB">
<feFlood flood-opacity="0" result="BackgroundImageFix"/>
<feColorMatrix in="SourceAlpha" type="matrix" values="0 0 0 0 0 0 0 0 0 0 0 0 0 0 0 0 0 0 127 0" result="hardAlpha"/>
<feOffset dx="1" dy="1"/>
<feComposite in2="hardAlpha" operator="out"/>
<feColorMatrix type="matrix" values="0 0 0 0 0.937255 0 0 0 0 0.690196 0 0 0 0 0.239216 0 0 0 1 0"/>
<feBlend mode="normal" in2="BackgroundImageFix" result="effect1_dropShadow_1462_48265"/>
<feBlend mode="normal" in="SourceGraphic" in2="effect1_dropShadow_1462_48265" result="shape"/>
</filter>
<clipPath id="clip0_1462_48265">
<rect width="16" height="16" fill="white" transform="translate(6 6)"/>
</clipPath>
</defs>
</svg>
