<svg width="29" height="29" viewBox="0 0 29 29" fill="none" xmlns="http://www.w3.org/2000/svg">
<g filter="url(#filter0_d_1462_48248)">
<rect width="28" height="28" rx="2.85714" fill="white" shape-rendering="crispEdges"/>
<rect x="0.714286" y="0.714286" width="26.5714" height="26.5714" rx="2.14286" stroke="#F8D75A" stroke-width="1.42857" shape-rendering="crispEdges"/>
<g clip-path="url(#clip0_1462_48248)">
<path d="M18.8913 18.8037C16.4251 21.27 12.2176 22.3837 8.8238 18.9887C5.43005 15.5937 6.54255 11.3875 9.0088 8.92125C10.3751 7.55125 12.0938 6.73875 13.8526 6.625C15.7713 6.51 17.5826 7.24375 19.0763 8.7375C20.5701 10.2312 21.2951 12.0337 21.1801 13.9525C21.0651 15.71 20.2501 17.4425 18.8913 18.8037Z" fill="url(#paint0_radial_1462_48248)"/>
<path d="M15.2496 6.69238C16.4796 6.98113 17.6246 7.64113 18.6384 8.64738C20.1384 10.1474 20.8571 11.9449 20.7421 13.8624C20.6246 15.6249 19.8096 17.3536 18.4484 18.7149C16.8521 20.3111 14.5259 21.3399 12.1621 20.9461C14.6746 21.5561 17.1946 20.4999 18.8909 18.8036C20.2496 17.4424 21.0646 15.7099 21.1796 13.9511C21.2946 12.0324 20.5696 10.2299 19.0759 8.73613C17.9496 7.60988 16.6421 6.91613 15.2496 6.69238Z" fill="#EB8F00"/>
<path d="M18.0885 10.9449C17.7422 10.8449 17.3747 11.0162 17.2285 11.3462C16.5847 12.5169 15.776 13.5891 14.8272 14.5299C13.8872 15.4787 12.8147 16.2874 11.6435 16.9299C11.4846 17.0013 11.3566 17.1274 11.283 17.2853C11.2093 17.4432 11.1948 17.6223 11.2422 17.7899C11.3447 18.1337 11.6885 18.3024 12.0122 18.4237C13.826 19.1024 15.8222 18.5974 17.356 17.0724L17.371 17.0587C18.8947 15.5249 19.3997 13.5287 18.721 11.7137C18.601 11.3912 18.431 11.0462 18.0885 10.9449Z" fill="#422B0D"/>
<path d="M17.2598 16.9475L17.2523 16.955V16.9625L17.2598 16.9475ZM14.9511 14.625L14.9373 14.6375L14.9248 14.6512L14.9511 14.625Z" fill="#422B0D"/>
<path d="M14.9511 14.625L14.9373 14.6375L14.9248 14.6512L14.9511 14.625ZM17.2598 16.9475L17.2523 16.955V16.9625L17.2598 16.9475Z" fill="#422B0D"/>
<path d="M18.4252 15.2976C18.3615 15.2976 18.3002 15.3064 18.2402 15.3114C17.5615 15.3551 16.924 15.6514 16.4527 16.1414C15.9477 16.6264 15.6277 17.2739 15.5477 17.9701C15.5402 18.0314 15.5327 18.0951 15.529 18.1551C15.5252 18.2151 15.539 18.2651 15.5465 18.3151C16.2222 18.0178 16.8362 17.5964 17.3565 17.0726L17.3715 17.0589C17.8727 16.5601 18.2802 15.9751 18.574 15.3326C18.5252 15.3176 18.4752 15.3064 18.4252 15.2976Z" fill="#ED7770"/>
<path d="M17.2285 11.3462C16.5847 12.5169 15.776 13.5891 14.8272 14.5299C13.8872 15.4787 12.8147 16.2874 11.6435 16.9299C11.4846 17.0013 11.3566 17.1274 11.283 17.2853C11.2093 17.4432 11.1948 17.6223 11.2422 17.7899C11.2585 17.8412 11.2797 17.8899 11.3072 17.9362C11.3585 17.9187 11.4072 17.8987 11.456 17.8749C13.0525 17.3454 14.4994 16.4419 15.676 15.2399C16.8295 14.1115 17.7098 12.7343 18.2497 11.2137C18.271 11.1624 18.2897 11.1099 18.306 11.0562C18.241 11.0062 18.1672 10.9674 18.0885 10.9449C17.7422 10.8449 17.3747 11.0162 17.2285 11.3462Z" fill="white"/>
<path d="M14.9247 14.7175C15.6585 14.0075 16.1385 13.31 16.716 12.46C16.8597 12.2475 16.996 12.03 17.1272 11.8062L17.2222 11.6375C17.2472 11.5937 17.2747 11.5512 17.3072 11.5125C17.3647 11.4412 17.4385 11.3862 17.5235 11.3512C17.721 11.2787 17.9372 11.275 18.1372 11.3412C18.5435 11.5362 18.8972 12.2312 18.8522 12.1012C18.8522 12.1012 18.7785 11.81 18.776 11.8062C18.676 11.5562 18.5735 11.2737 18.3147 11.0562C18.1788 10.9525 18.0173 10.8875 17.8474 10.8682C17.6775 10.8488 17.5056 10.8758 17.3497 10.9462C17.2014 11.0135 17.0725 11.1171 16.9747 11.2475C16.9272 11.3075 16.8847 11.3725 16.8497 11.4412L16.766 11.6062C16.6497 11.825 16.526 12.0412 16.391 12.2525C15.911 13.0537 15.3447 13.8 14.7022 14.4775L14.6822 14.4975C14.019 15.1324 13.287 15.6912 12.4997 16.1637C12.2872 16.2887 12.0722 16.4137 11.8535 16.5387L11.6835 16.625C11.6147 16.66 11.5497 16.7012 11.4897 16.75C11.3588 16.8473 11.2547 16.9763 11.1872 17.125C11.1215 17.2799 11.0984 17.4495 11.1204 17.6164C11.1424 17.7832 11.2086 17.9411 11.3122 18.0737C11.6485 18.5125 12.416 18.5737 12.4197 18.5737C12.5447 18.6187 11.7872 18.2962 11.5922 17.89C11.5235 17.6972 11.5235 17.4865 11.5922 17.2937C11.6247 17.2062 11.6785 17.1287 11.7497 17.0687C11.7885 17.0362 11.831 17.0087 11.8747 16.985L12.0435 16.89C12.266 16.765 12.4835 16.6212 12.6972 16.4775C13.546 15.9 14.1972 15.4775 14.9035 14.7375" fill="#EB8F00"/>
<path d="M20.3915 9.91741C20.5415 10.8724 19.664 11.7774 18.8678 11.8849C18.3078 11.9599 17.6828 11.8312 16.7428 11.5974C16.604 11.5712 16.4628 11.5299 16.3078 11.4912C15.7353 11.3324 15.1728 11.1412 14.6215 10.9187C14.5693 10.8995 14.526 10.8617 14.5 10.8126C14.4739 10.7634 14.4669 10.7064 14.4803 10.6524C14.4965 10.6049 14.529 10.5637 14.5703 10.5362C14.992 10.1038 15.4661 9.72591 15.9815 9.41116C17.2828 8.60616 17.7778 8.49741 18.3378 8.42241C19.1103 8.29616 20.229 8.87491 20.3915 9.91741Z" fill="url(#paint1_radial_1462_48248)"/>
<path d="M19.1901 9.0238C19.5538 9.1963 19.5563 9.69505 19.0013 9.7738C18.6451 9.8213 16.8113 9.9938 17.0251 9.65505C17.3751 9.0988 18.6763 8.78005 19.1901 9.0238Z" fill="#81D4FA"/>
<path d="M15.0808 9.88756L13.927 10.9226L14.3545 9.27881C14.3583 9.25881 14.362 9.24006 14.3633 9.22006C14.3745 9.15225 14.3723 9.08289 14.3567 9.01595C14.3411 8.94901 14.3125 8.8858 14.2724 8.82995C14.2323 8.7741 14.1817 8.7267 14.1232 8.69047C14.0648 8.65423 13.9999 8.62988 13.932 8.61881C13.8645 8.60756 13.7945 8.61006 13.727 8.62506C13.5786 8.66585 13.4464 8.7513 13.3482 8.86981C13.2501 8.98833 13.1907 9.13417 13.1783 9.28756C13.107 10.0138 12.9395 11.7251 12.8745 12.3913C12.8545 12.4576 12.892 12.5276 12.9583 12.5476C13.002 12.5613 13.0495 12.5488 13.082 12.5163L15.6683 10.8813L15.7195 10.8451C16.032 10.6051 16.1083 10.1476 15.8558 9.88256C15.6633 9.68006 15.3308 9.69631 15.0808 9.88756Z" fill="#422B0D"/>
<path d="M9.23747 19C9.19247 18.4613 9.19122 17.9763 9.67747 16.5925C9.86747 16.045 10.125 15.5238 10.4437 15.04C10.4612 14.995 10.4937 14.9575 10.535 14.9325C10.6337 14.8825 10.7537 14.9163 10.8137 15.0088C11.135 15.4788 11.4287 15.9663 11.6962 16.4688C11.7637 16.6063 11.8312 16.7288 11.885 16.8538C12.2975 17.69 12.5462 18.2488 12.5912 18.7875C12.655 19.5538 11.9887 20.5613 11.065 20.6188C10.0587 20.6763 9.28497 19.75 9.23747 19Z" fill="url(#paint2_radial_1462_48248)"/>
<path d="M10.1247 17.5214C10.3959 17.2501 10.6122 19.0001 10.6409 19.3439C10.6847 19.8789 10.2172 19.9789 9.98219 19.6751C9.64719 19.2501 9.67844 17.9614 10.1247 17.5214Z" fill="#81D4FA"/>
<path d="M9.77148 15.8451L10.604 14.5363L9.05273 15.2288L9.00023 15.2501C8.72648 15.3426 8.42898 15.1963 8.33523 14.9226C8.31273 14.8576 8.30398 14.7888 8.30898 14.7201C8.32472 14.5669 8.38729 14.4223 8.48817 14.306C8.58905 14.1897 8.72333 14.1073 8.87273 14.0701L11.8752 13.2563C11.9377 13.2263 12.0127 13.2526 12.0427 13.3151C12.0627 13.3563 12.059 13.4051 12.0315 13.4413L10.8477 16.2601C10.8402 16.2801 10.8315 16.2988 10.8215 16.3176C10.6365 16.6651 10.1965 16.8176 9.89398 16.6101C9.66273 16.4526 9.62523 16.1251 9.77148 15.8451Z" fill="#422B0D"/>
</g>
</g>
<defs>
<filter id="filter0_d_1462_48248" x="0" y="0" width="29" height="29" filterUnits="userSpaceOnUse" color-interpolation-filters="sRGB">
<feFlood flood-opacity="0" result="BackgroundImageFix"/>
<feColorMatrix in="SourceAlpha" type="matrix" values="0 0 0 0 0 0 0 0 0 0 0 0 0 0 0 0 0 0 127 0" result="hardAlpha"/>
<feOffset dx="1" dy="1"/>
<feComposite in2="hardAlpha" operator="out"/>
<feColorMatrix type="matrix" values="0 0 0 0 0.972549 0 0 0 0 0.843137 0 0 0 0 0.352941 0 0 0 1 0"/>
<feBlend mode="normal" in2="BackgroundImageFix" result="effect1_dropShadow_1462_48248"/>
<feBlend mode="normal" in="SourceGraphic" in2="effect1_dropShadow_1462_48248" result="shape"/>
</filter>
<radialGradient id="paint0_radial_1462_48248" cx="0" cy="0" r="1" gradientUnits="userSpaceOnUse" gradientTransform="translate(13.734 13.6004) rotate(-45) scale(7.12)">
<stop offset="0.5" stop-color="#FDE030"/>
<stop offset="0.92" stop-color="#F7C02B"/>
<stop offset="1" stop-color="#F4A223"/>
</radialGradient>
<radialGradient id="paint1_radial_1462_48248" cx="0" cy="0" r="1" gradientUnits="userSpaceOnUse" gradientTransform="translate(15.6858 9.81287) rotate(-97.4809) scale(3.94407 6.10006)">
<stop offset="0.46" stop-color="#29B6F6"/>
<stop offset="1" stop-color="#1E88E5"/>
</radialGradient>
<radialGradient id="paint2_radial_1462_48248" cx="0" cy="0" r="1" gradientUnits="userSpaceOnUse" gradientTransform="translate(10.9302 15.2116) rotate(175.426) scale(3.79458 5.80801)">
<stop offset="0.46" stop-color="#29B6F6"/>
<stop offset="1" stop-color="#1E88E5"/>
</radialGradient>
<clipPath id="clip0_1462_48248">
<rect width="16" height="16" fill="white" transform="translate(6 6)"/>
</clipPath>
</defs>
</svg>
