<svg width="31" height="40" viewBox="0 0 31 40" fill="none" xmlns="http://www.w3.org/2000/svg">
<g clip-path="url(#clip0_1462_48095)">
<path fill-rule="evenodd" clip-rule="evenodd" d="M2.42866 32.5694L13.9984 38.0564C14.2517 38.1765 14.5321 38.1819 14.7791 38.0938C15.0264 38.0056 15.24 37.8241 15.3602 37.5706L24.2785 18.7655C24.3987 18.512 24.4041 18.2317 24.3159 17.9846C24.2278 17.7374 24.0463 17.5238 23.7929 17.4036C24.0727 17.5294 24.403 17.4088 24.5351 17.1303L24.7461 16.6853L25.4305 15.2423C25.6025 14.8795 25.5439 14.4708 25.3109 14.1045C25.212 13.9491 25.0792 13.7997 24.9192 13.6669C24.845 13.8334 24.7575 13.9985 24.6553 14.1617C24.4907 14.4263 24.1428 14.5072 23.8782 14.3427C23.6137 14.1781 23.5326 13.8302 23.6971 13.5656C23.7887 13.4195 23.8642 13.2704 23.9252 13.1194L15.4568 9.10326C15.3784 9.24609 15.3107 9.39885 15.2555 9.56221C15.1548 9.85707 14.8342 10.0145 14.5393 9.91371C14.2445 9.81299 14.087 9.49233 14.1877 9.19748C14.2494 9.01502 14.3218 8.84278 14.4038 8.67997C14.1998 8.64013 14.0001 8.6318 13.8172 8.65362C13.3861 8.70496 13.0325 8.91817 12.8604 9.281L12.1761 10.724L11.965 11.169C11.8329 11.4475 11.9486 11.7797 12.2232 11.9167C11.9697 11.7965 11.6895 11.791 11.4423 11.8792C11.1951 11.9673 10.9815 12.1489 10.8613 12.4024L1.94301 31.2075C1.82277 31.4611 1.81737 31.7412 1.9055 31.9885C1.99369 32.2356 2.17514 32.4492 2.42866 32.5694ZM23.7826 17.3987C23.5006 17.265 23.3805 16.9281 23.5142 16.6461L23.7563 16.1357L24.4096 14.7582C24.4147 14.7475 24.3858 14.7493 24.36 14.7087C24.2855 14.5915 24.1474 14.4753 23.9639 14.3883L14.4498 9.87628C14.2662 9.78921 14.0889 9.7558 13.9511 9.77229C13.9033 9.77797 13.8864 9.75446 13.8814 9.76518L13.2281 11.1427L12.986 11.6531C12.8523 11.9351 12.5153 12.0552 12.2334 11.9215L23.7826 17.3987ZM12.2334 11.9215L12.2232 11.9167C12.2266 11.9183 12.23 11.9199 12.2334 11.9215ZM5.34897 30.2323L7.95453 31.468C8.23639 31.6017 8.3566 31.9385 8.22286 32.2205C8.08921 32.5023 7.75221 32.6226 7.47035 32.4889L4.86479 31.2532C4.58285 31.1195 4.4627 30.7825 4.59635 30.5007C4.73009 30.2187 5.06703 30.0986 5.34897 30.2323ZM6.53422 27.7331L9.13978 28.9688C9.42164 29.1024 9.54181 29.4394 9.4081 29.7213C9.27446 30.0031 8.93749 30.1233 8.65563 29.9896L6.05007 28.754C5.76813 28.6203 5.64795 28.2833 5.78159 28.0015C5.9153 27.7195 6.25228 27.5994 6.53422 27.7331ZM7.71946 25.2339L10.325 26.4696C10.6069 26.6032 10.7271 26.9401 10.5934 27.222C10.4597 27.5039 10.1227 27.6241 9.84087 27.4904L7.23532 26.2548C6.95338 26.121 6.8332 25.784 6.96688 25.5022C7.10058 25.2202 7.43752 25.1002 7.71946 25.2339Z" fill="white"/>
<path fill-rule="evenodd" clip-rule="evenodd" d="M13.2285 11.1426L23.7568 16.1356L24.41 14.7581C24.4151 14.7474 24.3862 14.7492 24.3604 14.7086C24.2859 14.5914 24.1478 14.4752 23.9643 14.3882L14.4502 9.87618C14.2667 9.78912 14.0893 9.75571 13.9515 9.77219C13.9037 9.77787 13.8869 9.75437 13.8818 9.76509L13.2285 11.1426Z" fill="white"/>
<path fill-rule="evenodd" clip-rule="evenodd" d="M15.457 9.104L23.9255 13.1202C24.8314 10.8769 22.5572 8.18237 22.5504 8.17382C22.3623 7.94913 22.3774 7.61381 22.5916 7.40707C23.3866 6.64252 23.5642 5.95003 23.4066 5.44119C23.3008 5.09929 23.0456 4.83032 22.733 4.67968C22.4202 4.52895 22.0555 4.49689 21.731 4.62892C21.2472 4.82557 20.8292 5.3969 20.7268 6.49426C20.7167 6.79961 20.4643 7.04239 20.1572 7.03909C20.1464 7.03905 16.6208 6.98305 15.457 9.104Z" fill="white"/>
<path d="M2.4289 32.5698L13.9986 38.0567C14.252 38.1769 14.5323 38.1823 14.7794 38.0942C15.0266 38.0059 15.2402 37.8245 15.3605 37.5709L24.2788 18.7658C24.399 18.5124 24.4044 18.232 24.3162 17.9849C24.2281 17.7378 24.0465 17.5241 23.7931 17.4039L12.2234 11.917C11.9699 11.7968 11.6897 11.7914 11.4426 11.8795C11.1953 11.9677 10.9818 12.1493 10.8615 12.4028L1.94325 31.2079C1.82301 31.4614 1.81761 31.7416 1.90575 31.9889C1.99393 32.236 2.17538 32.4496 2.4289 32.5698ZM13.5144 39.0777L1.94472 33.5907C1.40937 33.3368 1.02677 32.8876 0.841596 32.3682C0.656403 31.849 0.668407 31.2591 0.92231 30.7237L9.8406 11.9186C10.0945 11.3832 10.5438 11.0006 11.063 10.8153C11.5823 10.6302 12.1723 10.6422 12.7076 10.8961L24.2773 16.383C24.8126 16.6369 25.1952 17.0861 25.3803 17.6054C25.5655 18.1246 25.5535 18.7146 25.2996 19.25L16.3813 38.0551C16.1275 38.5904 15.6782 38.9731 15.159 39.1582C14.6397 39.3435 14.0497 39.3315 13.5144 39.0777Z" fill="black"/>
<path d="M12.9867 11.6534C12.853 11.9353 12.516 12.0555 12.2341 11.9218C11.9522 11.7881 11.832 11.4511 11.9657 11.1692L12.8611 9.28125C13.0332 8.91842 13.3868 8.70521 13.8179 8.65387C14.1589 8.61324 14.5586 8.67723 14.9347 8.85558L24.4487 13.3676C24.8248 13.5459 25.1273 13.815 25.3116 14.1048C25.5446 14.471 25.6032 14.8797 25.4311 15.2426L24.5358 17.1305C24.4021 17.4125 24.0651 17.5326 23.7833 17.399C23.5013 17.2652 23.3812 16.9283 23.5149 16.6464L24.4103 14.7584C24.4154 14.7477 24.3865 14.7495 24.3607 14.709C24.2862 14.5918 24.1481 14.4756 23.9645 14.3885L14.4505 9.87653C14.2669 9.78946 14.0896 9.75605 13.9517 9.77254C13.904 9.77822 13.8871 9.75471 13.882 9.76543L12.9867 11.6534Z" fill="black"/>
<path d="M15.2553 9.56233C15.1547 9.85718 14.834 10.0146 14.5391 9.91382C14.2443 9.8131 14.0869 9.49245 14.1876 9.19759C15.1014 6.49216 18.3999 6.01247 19.6675 5.92841C19.8999 4.62803 20.5526 3.89314 21.306 3.58674C21.9404 3.32875 22.6352 3.38273 23.2189 3.6639C23.8028 3.94526 24.2814 4.45426 24.4832 5.10621C24.726 5.89006 24.5745 6.86285 23.7209 7.85244C24.4588 8.88924 26.1705 11.7442 24.6551 14.1618C24.4905 14.4264 24.1426 14.5074 23.878 14.3428C23.6135 14.1783 23.5324 13.8303 23.6969 13.5657C25.1476 11.2515 22.5572 8.1823 22.5498 8.17332L22.55 8.17319C22.3618 7.9485 22.377 7.61318 22.5911 7.40644C23.3861 6.64189 23.5638 5.9494 23.4062 5.44056C23.3003 5.09866 23.0452 4.82969 22.7326 4.67904C22.4198 4.52832 22.0551 4.49626 21.7305 4.62828C21.2468 4.82494 20.8288 5.39626 20.7264 6.49363C20.7162 6.79897 20.4639 7.04176 20.1568 7.03846C20.1452 7.03841 16.1294 6.9746 15.2553 9.56233Z" fill="black"/>
<path d="M7.23514 26.2548C6.9532 26.1211 6.83302 25.7841 6.96671 25.5022C7.1004 25.2203 7.43735 25.1002 7.71929 25.2339L10.3248 26.4696C10.6067 26.6033 10.7269 26.9402 10.5932 27.2221C10.4595 27.504 10.1226 27.6242 9.84069 27.4905L7.23514 26.2548Z" fill="#4EAB5E"/>
<path d="M6.05057 28.7538C5.76863 28.6201 5.64845 28.2831 5.78209 28.0013C5.9158 27.7194 6.25278 27.5993 6.53472 27.733L9.14027 28.9686C9.42213 29.1023 9.5423 29.4393 9.4086 29.7212C9.27496 30.003 8.93799 30.1232 8.65612 29.9895L6.05057 28.7538Z" fill="#F8D75A"/>
<path d="M4.86502 31.2538C4.58308 31.1201 4.46293 30.7831 4.59658 30.5013C4.73032 30.2193 5.06726 30.0992 5.3492 30.2329L7.95476 31.4686C8.23662 31.6022 8.35682 31.9391 8.22309 32.2211C8.08944 32.5029 7.75244 32.6232 7.47058 32.4895L4.86502 31.2538Z" fill="#F27360"/>
<path d="M13.0827 37.6377L22.7997 16.9231L24.1646 17.5876C24.4656 17.7342 24.5927 18.0957 24.4494 18.3984L15.1992 37.9453C15.056 38.2479 14.6959 38.3789 14.3917 38.2391L13.0827 37.6377Z" fill="black"/>
</g>
<defs>
<clipPath id="clip0_1462_48095">
<rect width="17.1091" height="36.1563" fill="white" transform="translate(15.4932) rotate(25.3726)"/>
</clipPath>
</defs>
</svg>
