<svg width="371" height="126" viewBox="0 0 371 126" fill="none" xmlns="http://www.w3.org/2000/svg">
<g filter="url(#filter0_d_1506_323)">
<rect x="1" y="1" width="361" height="116" rx="4" fill="#55128A" shape-rendering="crispEdges"/>
<rect x="1" y="1" width="361" height="116" rx="4" fill="url(#paint0_radial_1506_323)" shape-rendering="crispEdges"/>
<rect x="1" y="1" width="361" height="116" rx="4" fill="url(#paint1_radial_1506_323)" shape-rendering="crispEdges"/>
<rect x="1" y="1" width="361" height="116" rx="4" fill="url(#paint2_radial_1506_323)" fill-opacity="0.3" shape-rendering="crispEdges"/>
<rect x="1" y="1" width="361" height="116" rx="4" stroke="#F2A7B0" shape-rendering="crispEdges"/>
<g opacity="0.2" clip-path="url(#clip0_1506_323)">
<path fill-rule="evenodd" clip-rule="evenodd" d="M278.323 84.077L303.245 95.8965C303.791 96.1553 304.395 96.1669 304.927 95.9771C305.46 95.787 305.92 95.3962 306.179 94.8501L325.39 54.3417C325.649 53.7957 325.661 53.1918 325.471 52.6595C325.281 52.1271 324.89 51.6669 324.344 51.408C324.947 51.6791 325.658 51.4191 325.943 50.8193L326.397 49.8608L327.871 46.7524C328.242 45.9708 328.116 45.0903 327.614 44.3014C327.401 43.9665 327.115 43.6447 326.77 43.3587C326.61 43.7174 326.422 44.073 326.202 44.4246C325.847 44.9945 325.098 45.169 324.528 44.8145C323.958 44.46 323.783 43.7105 324.138 43.1406C324.335 42.8258 324.497 42.5047 324.629 42.1794L306.387 33.5281C306.218 33.8358 306.072 34.1649 305.953 34.5168C305.737 35.1519 305.046 35.491 304.411 35.2739C303.776 35.057 303.436 34.3662 303.653 33.7311C303.786 33.3381 303.942 32.967 304.119 32.6163C303.679 32.5305 303.249 32.5126 302.855 32.5596C301.927 32.6701 301.165 33.1294 300.794 33.911L299.32 37.0194L298.865 37.9779C298.581 38.5779 298.83 39.2935 299.422 39.5886C298.875 39.3296 298.272 39.3179 297.739 39.5078C297.207 39.6977 296.747 40.0889 296.488 40.6349L277.277 81.1432C277.018 81.6894 277.006 82.2929 277.196 82.8256C277.386 83.3579 277.777 83.818 278.323 84.077ZM324.322 51.3975C323.714 51.1094 323.456 50.3837 323.744 49.7764L324.265 48.6768L325.672 45.7095C325.683 45.6864 325.621 45.6903 325.566 45.6029C325.405 45.3505 325.108 45.1002 324.712 44.9127L304.218 35.1933C303.822 35.0058 303.44 34.9338 303.143 34.9693C303.041 34.9815 303.004 34.9309 302.993 34.954L301.586 37.9213L301.065 39.0209C300.777 39.6282 300.051 39.887 299.444 39.599L324.322 51.3975ZM299.444 39.599L299.422 39.5886C299.429 39.5921 299.436 39.5955 299.444 39.599ZM284.614 79.0425L290.226 81.7043C290.833 81.9923 291.092 82.7179 290.804 83.3254C290.516 83.9324 289.79 84.1915 289.183 83.9036L283.571 81.2418C282.963 80.9537 282.704 80.2276 282.992 79.6206C283.28 79.0132 284.006 78.7545 284.614 79.0425ZM287.167 73.6589L292.779 76.3207C293.387 76.6087 293.645 77.3345 293.357 77.9418C293.07 78.5489 292.344 78.8078 291.737 78.5198L286.124 75.858C285.517 75.57 285.258 74.8441 285.546 74.237C285.834 73.6297 286.559 73.3709 287.167 73.6589ZM289.72 68.2754L295.333 70.9372C295.94 71.2251 296.199 71.9508 295.911 72.558C295.623 73.1653 294.897 73.4242 294.29 73.1362L288.677 70.4744C288.07 70.1864 287.811 69.4605 288.099 68.8532C288.387 68.246 289.113 67.9873 289.72 68.2754Z" fill="white"/>
<path fill-rule="evenodd" clip-rule="evenodd" d="M301.586 37.9199L324.265 48.6754L325.672 45.7082C325.683 45.6851 325.621 45.689 325.565 45.6016C325.405 45.3492 325.107 45.0989 324.712 44.9114L304.218 35.192C303.822 35.0044 303.44 34.9324 303.143 34.968C303.04 34.9802 303.004 34.9296 302.993 34.9527L301.586 37.9199Z" fill="white"/>
<path fill-rule="evenodd" clip-rule="evenodd" d="M306.387 33.5298L324.629 42.181C326.58 37.3488 321.681 31.5445 321.667 31.5261C321.261 31.0421 321.294 30.3197 321.755 29.8744C323.468 28.2275 323.85 26.7358 323.511 25.6397C323.283 24.9032 322.733 24.3238 322.06 23.9993C321.386 23.6746 320.601 23.6055 319.901 23.8899C318.859 24.3136 317.959 25.5442 317.738 27.9081C317.717 28.5658 317.173 29.0888 316.511 29.0817C316.488 29.0816 308.894 28.961 306.387 33.5298Z" fill="white"/>
<path d="M278.323 84.0775L303.245 95.897C303.791 96.1558 304.395 96.1674 304.927 95.9776C305.46 95.7875 305.92 95.3967 306.179 94.8506L325.39 54.3422C325.649 53.7962 325.661 53.1923 325.471 52.66C325.281 52.1276 324.89 51.6674 324.344 51.4085L299.422 39.5891C298.875 39.3301 298.272 39.3184 297.739 39.5083C297.207 39.6982 296.747 40.0894 296.488 40.6354L277.277 81.1437C277.018 81.6899 277.006 82.2934 277.196 82.8261C277.386 83.3584 277.777 83.8185 278.323 84.0775ZM302.202 98.0962L277.28 86.2767C276.127 85.7298 275.303 84.762 274.904 83.6433C274.505 82.5249 274.531 81.254 275.078 80.1008L294.289 39.5924C294.836 38.4391 295.803 37.615 296.922 37.2159C298.04 36.8171 299.311 36.843 300.465 37.3898L325.387 49.2093C326.54 49.7561 327.364 50.7239 327.763 51.8425C328.162 52.961 328.136 54.2318 327.589 55.3851L308.378 95.8935C307.831 97.0466 306.863 97.8709 305.745 98.2697C304.626 98.6688 303.356 98.643 302.202 98.0962Z" fill="white"/>
<path d="M301.064 39.02C300.776 39.6273 300.051 39.8862 299.443 39.5982C298.836 39.3101 298.577 38.5843 298.865 37.977L300.794 33.9101C301.165 33.1286 301.926 32.6693 302.855 32.5587C303.59 32.4712 304.451 32.609 305.261 32.9932L325.755 42.7126C326.565 43.0968 327.217 43.6763 327.614 44.3005C328.116 45.0895 328.242 45.97 327.871 46.7515L325.943 50.8184C325.655 51.4257 324.929 51.6846 324.322 51.3966C323.714 51.1086 323.456 50.3828 323.744 49.7755L325.672 45.7086C325.683 45.6855 325.621 45.6895 325.565 45.6021C325.405 45.3497 325.107 45.0994 324.712 44.9119L304.218 35.1924C303.822 35.0049 303.44 34.9329 303.143 34.9684C303.04 34.9807 303.004 34.93 302.993 34.9531L301.064 39.02Z" fill="white"/>
<path d="M305.953 34.5159C305.736 35.151 305.046 35.4901 304.41 35.273C303.775 35.0561 303.436 34.3653 303.653 33.7302C305.622 27.9024 312.727 26.8691 315.458 26.688C315.958 23.8868 317.364 22.3038 318.987 21.6438C320.354 21.088 321.85 21.2043 323.108 21.81C324.366 22.4161 325.397 23.5125 325.831 24.9169C326.354 26.6054 326.028 28.7009 324.189 30.8326C325.779 33.066 329.466 39.2158 326.201 44.4237C325.847 44.9936 325.098 45.168 324.528 44.8136C323.958 44.4591 323.783 43.7096 324.138 43.1397C327.262 38.1545 321.682 31.5431 321.666 31.5238L321.667 31.5235C321.262 31.0395 321.294 30.3172 321.755 29.8718C323.468 28.2249 323.851 26.7332 323.511 25.6371C323.283 24.9006 322.734 24.3212 322.06 23.9967C321.386 23.672 320.601 23.603 319.902 23.8874C318.86 24.311 317.959 25.5417 317.739 27.9055C317.717 28.5633 317.173 29.0863 316.512 29.0792C316.487 29.0791 307.836 28.9416 305.953 34.5159Z" fill="white"/>
<path d="M288.677 70.4732C288.07 70.1852 287.811 69.4593 288.099 68.852C288.387 68.2448 289.112 67.9861 289.72 68.2741L295.332 70.9359C295.94 71.2239 296.199 71.9496 295.911 72.5568C295.623 73.164 294.897 73.423 294.29 73.135L288.677 70.4732Z" fill="white"/>
<path d="M286.124 75.8565C285.517 75.5685 285.258 74.8426 285.546 74.2355C285.834 73.6282 286.56 73.3694 287.167 73.6574L292.78 76.3192C293.387 76.6072 293.646 77.333 293.358 77.9403C293.07 78.5473 292.344 78.8063 291.737 78.5183L286.124 75.8565Z" fill="white"/>
<path d="M283.57 81.2437C282.963 80.9557 282.704 80.2296 282.992 79.6226C283.28 79.0151 284.006 78.7565 284.613 79.0445L290.226 81.7063C290.833 81.9942 291.092 82.7199 290.804 83.3274C290.516 83.9344 289.79 84.1935 289.183 83.9055L283.57 81.2437Z" fill="white"/>
<path d="M301.272 94.9943L322.203 50.3727L324.684 51.5803C325.587 52.02 325.968 53.1047 325.539 54.0126L306.05 95.195C305.62 96.1027 304.54 96.4958 303.627 96.0765L301.272 94.9943Z" fill="white"/>
</g>
</g>
<defs>
<filter id="filter0_d_1506_323" x="0.5" y="0.5" width="370" height="125" filterUnits="userSpaceOnUse" color-interpolation-filters="sRGB">
<feFlood flood-opacity="0" result="BackgroundImageFix"/>
<feColorMatrix in="SourceAlpha" type="matrix" values="0 0 0 0 0 0 0 0 0 0 0 0 0 0 0 0 0 0 127 0" result="hardAlpha"/>
<feOffset dx="4" dy="4"/>
<feGaussianBlur stdDeviation="2"/>
<feComposite in2="hardAlpha" operator="out"/>
<feColorMatrix type="matrix" values="0 0 0 0 0.94902 0 0 0 0 0.654902 0 0 0 0 0.690196 0 0 0 1 0"/>
<feBlend mode="normal" in2="BackgroundImageFix" result="effect1_dropShadow_1506_323"/>
<feBlend mode="normal" in="SourceGraphic" in2="effect1_dropShadow_1506_323" result="shape"/>
</filter>
<radialGradient id="paint0_radial_1506_323" cx="0" cy="0" r="1" gradientUnits="userSpaceOnUse" gradientTransform="translate(158.938 133.312) rotate(-100.028) scale(117.799 250.468)">
<stop stop-color="#AD12F5"/>
<stop offset="0.809757" stop-color="#FDAC62"/>
</radialGradient>
<radialGradient id="paint1_radial_1506_323" cx="0" cy="0" r="1" gradientUnits="userSpaceOnUse" gradientTransform="translate(-13.358 15.5) rotate(27.78) scale(241.107 229.037)">
<stop offset="0.196529" stop-color="#FF33BA"/>
<stop offset="1" stop-color="#ED42B3" stop-opacity="0"/>
</radialGradient>
<radialGradient id="paint2_radial_1506_323" cx="0" cy="0" r="1" gradientUnits="userSpaceOnUse" gradientTransform="translate(93.3011 40.875) rotate(19.7628) scale(198.335 497.431)">
<stop stop-color="white"/>
<stop offset="1" stop-color="white" stop-opacity="0"/>
</radialGradient>
<clipPath id="clip0_1506_323">
<rect width="36.8549" height="77.8849" fill="white" transform="translate(306.465 13.9175) rotate(25.3726)"/>
</clipPath>
</defs>
</svg>
