<svg width="35" height="35" viewBox="0 0 35 35" fill="none" xmlns="http://www.w3.org/2000/svg">
<g filter="url(#filter0_d_1544_27014)">
<rect width="32" height="32" rx="2.85714" fill="white" shape-rendering="crispEdges"/>
<rect x="0.714286" y="0.714286" width="30.5714" height="30.5714" rx="2.14286" stroke="#F27360" stroke-width="1.42857" shape-rendering="crispEdges"/>
<path d="M14.6673 12.0002H17.334C17.334 11.6465 17.1935 11.3074 16.9435 11.0574C16.6934 10.8073 16.3543 10.6668 16.0007 10.6668C15.647 10.6668 15.3079 10.8073 15.0578 11.0574C14.8078 11.3074 14.6673 11.6465 14.6673 12.0002ZM13.334 12.0002C13.334 11.2929 13.6149 10.6146 14.115 10.1145C14.6151 9.61445 15.2934 9.3335 16.0007 9.3335C16.7079 9.3335 17.3862 9.61445 17.8863 10.1145C18.3864 10.6146 18.6673 11.2929 18.6673 12.0002H22.0007C22.1775 12.0002 22.347 12.0704 22.4721 12.1954C22.5971 12.3204 22.6673 12.49 22.6673 12.6668C22.6673 12.8436 22.5971 13.0132 22.4721 13.1382C22.347 13.2633 22.1775 13.3335 22.0007 13.3335H21.4127L20.822 20.2268C20.7652 20.8925 20.4606 21.5126 19.9686 21.9644C19.4765 22.4162 18.8327 22.6669 18.1647 22.6668H13.8367C13.1686 22.6669 12.5248 22.4162 12.0328 21.9644C11.5407 21.5126 11.2361 20.8925 11.1793 20.2268L10.5887 13.3335H10.0007C9.82384 13.3335 9.65427 13.2633 9.52925 13.1382C9.40422 13.0132 9.33398 12.8436 9.33398 12.6668C9.33398 12.49 9.40422 12.3204 9.52925 12.1954C9.65427 12.0704 9.82384 12.0002 10.0007 12.0002H13.334ZM18.0007 16.0002C18.0007 15.8234 17.9304 15.6538 17.8054 15.5288C17.6804 15.4037 17.5108 15.3335 17.334 15.3335C17.1572 15.3335 16.9876 15.4037 16.8626 15.5288C16.7376 15.6538 16.6673 15.8234 16.6673 16.0002V18.6668C16.6673 18.8436 16.7376 19.0132 16.8626 19.1382C16.9876 19.2633 17.1572 19.3335 17.334 19.3335C17.5108 19.3335 17.6804 19.2633 17.8054 19.1382C17.9304 19.0132 18.0007 18.8436 18.0007 18.6668V16.0002ZM14.6673 15.3335C14.4905 15.3335 14.3209 15.4037 14.1959 15.5288C14.0709 15.6538 14.0007 15.8234 14.0007 16.0002V18.6668C14.0007 18.8436 14.0709 19.0132 14.1959 19.1382C14.3209 19.2633 14.4905 19.3335 14.6673 19.3335C14.8441 19.3335 15.0137 19.2633 15.1387 19.1382C15.2637 19.0132 15.334 18.8436 15.334 18.6668V16.0002C15.334 15.8234 15.2637 15.6538 15.1387 15.5288C15.0137 15.4037 14.8441 15.3335 14.6673 15.3335Z" fill="#F27360"/>
</g>
<defs>
<filter id="filter0_d_1544_27014" x="0" y="0" width="34.8571" height="34.8571" filterUnits="userSpaceOnUse" color-interpolation-filters="sRGB">
<feFlood flood-opacity="0" result="BackgroundImageFix"/>
<feColorMatrix in="SourceAlpha" type="matrix" values="0 0 0 0 0 0 0 0 0 0 0 0 0 0 0 0 0 0 127 0" result="hardAlpha"/>
<feOffset dx="2.85714" dy="2.85714"/>
<feComposite in2="hardAlpha" operator="out"/>
<feColorMatrix type="matrix" values="0 0 0 0 0 0 0 0 0 0 0 0 0 0 0 0 0 0 1 0"/>
<feBlend mode="normal" in2="BackgroundImageFix" result="effect1_dropShadow_1544_27014"/>
<feBlend mode="normal" in="SourceGraphic" in2="effect1_dropShadow_1544_27014" result="shape"/>
</filter>
</defs>
</svg>
