<svg width="160" height="60" viewBox="0 0 160 60" fill="none" xmlns="http://www.w3.org/2000/svg">
<g filter="url(#filter0_d_1462_52539)">
<rect width="156" height="56" rx="28" fill="white" shape-rendering="crispEdges"/>
<rect x="2" y="2" width="152" height="52" rx="26" stroke="black" stroke-width="4" shape-rendering="crispEdges"/>
<path d="M39.2503 31.5608C39.6646 31.8921 40.1935 32.0452 40.7207 31.9865C41.2478 31.9278 41.7301 31.6621 42.0613 31.2478L44.8503 27.7618L47.3003 29.5998C47.7162 29.9115 48.2371 30.0491 48.7527 29.9834C49.2682 29.9177 49.7379 29.6539 50.0623 29.2478L54.0623 24.2478C54.3937 23.8336 54.547 23.3046 54.4884 22.7774C54.4298 22.2501 54.1641 21.7677 53.7498 21.4363C53.3356 21.1049 52.8066 20.9517 52.2794 21.0103C51.7521 21.0689 51.2697 21.3346 50.9383 21.7488L48.1493 25.2348L45.7003 23.3998C45.2847 23.0879 44.764 22.95 44.2484 23.0153C43.7329 23.0807 43.263 23.3441 42.9383 23.7498L38.9383 28.7498C38.607 29.164 38.4537 29.6928 38.5122 30.2199C38.5707 30.7471 38.8362 31.2294 39.2503 31.5608ZM39.5003 36.9998H53.5003C53.7656 36.9998 54.0199 36.8945 54.2074 36.7069C54.395 36.5194 54.5003 36.265 54.5003 35.9998C54.5003 35.7346 54.395 35.4803 54.2074 35.2927C54.0199 35.1052 53.7656 34.9998 53.5003 34.9998H39.5003C39.2351 34.9998 38.9808 35.1052 38.7932 35.2927C38.6057 35.4803 38.5003 35.7346 38.5003 35.9998C38.5003 36.265 38.6057 36.5194 38.7932 36.7069C38.9808 36.8945 39.2351 36.9998 39.5003 36.9998Z" fill="black"/>
<path d="M75.412 29.692H77.588C77.4387 30.8867 76.9053 31.8573 75.988 32.604C75.0707 33.34 73.9293 33.708 72.564 33.708C70.8573 33.708 69.524 33.1693 68.564 32.092C67.6147 31.004 67.14 29.5213 67.14 27.644C67.14 25.8093 67.6307 24.3587 68.612 23.292C69.604 22.2253 70.9427 21.692 72.628 21.692C73.9827 21.692 75.0973 22.0493 75.972 22.764C76.8573 23.4787 77.396 24.444 77.588 25.66H75.412C75.028 24.2307 74.0947 23.516 72.612 23.516C71.7053 23.516 70.9587 23.8787 70.372 24.604C69.796 25.3293 69.508 26.3427 69.508 27.644C69.508 28.9773 69.7907 30.0173 70.356 30.764C70.932 31.5107 71.6573 31.884 72.532 31.884C74.1 31.884 75.06 31.1533 75.412 29.692ZM86.528 21.9H88.816V33.5H86.528V28.492H81.328V33.5H79.04V21.9H81.328V26.636H86.528V21.9ZM89.7031 33.5L94.0231 21.9H96.3271L100.663 33.5H98.1831L97.3671 31.148H92.8551L92.0391 33.5H89.7031ZM95.1111 24.7L93.5111 29.276H96.7111L95.1111 24.7ZM108.72 33.5L106.416 28.956H105.872H103.984V33.5H101.696V21.9H105.504C107.392 21.9 108.742 22.1827 109.552 22.748C110.374 23.3027 110.784 24.1933 110.784 25.42C110.784 26.86 110.086 27.8787 108.688 28.476L111.264 33.5H108.72ZM105.76 23.692H103.984V27.18H105.872C107.579 27.18 108.432 26.5987 108.432 25.436C108.432 24.2733 107.542 23.692 105.76 23.692ZM114.726 33.5V23.756H111.158V21.9H120.598V23.756H117.014V33.5H114.726Z" fill="black"/>
</g>
<defs>
<filter id="filter0_d_1462_52539" x="0" y="0" width="160" height="60" filterUnits="userSpaceOnUse" color-interpolation-filters="sRGB">
<feFlood flood-opacity="0" result="BackgroundImageFix"/>
<feColorMatrix in="SourceAlpha" type="matrix" values="0 0 0 0 0 0 0 0 0 0 0 0 0 0 0 0 0 0 127 0" result="hardAlpha"/>
<feOffset dx="4" dy="4"/>
<feComposite in2="hardAlpha" operator="out"/>
<feColorMatrix type="matrix" values="0 0 0 0 0 0 0 0 0 0 0 0 0 0 0 0 0 0 1 0"/>
<feBlend mode="normal" in2="BackgroundImageFix" result="effect1_dropShadow_1462_52539"/>
<feBlend mode="normal" in="SourceGraphic" in2="effect1_dropShadow_1462_52539" result="shape"/>
</filter>
</defs>
</svg>
